<?xml version="1.0" standalone="no"?>
<!DOCTYPE svg PUBLIC "-//W3C//DTD SVG 20010904//EN"
 "http://www.w3.org/TR/2001/REC-SVG-20010904/DTD/svg10.dtd">
<svg version="1.0" xmlns="http://www.w3.org/2000/svg"
 width="431.000000pt" height="579.000000pt" viewBox="0 0 431.000000 579.000000"
 preserveAspectRatio="xMidYMid meet">

<g transform="translate(0.000000,579.000000) scale(0.100000,-0.100000)"
fill="#000000" stroke="none">
<path d="M2980 4418 l0 -1373 -1492 -1492 -1493 -1493 33 -32 34 -33 1060
1065 1060 1064 233 -239 234 -240 201 200 c111 110 485 487 832 838 l631 638
-23 24 c-13 14 -28 25 -34 25 -6 0 -370 -359 -808 -797 l-798 -798 -205 205
-205 205 410 410 410 410 0 1393 0 1392 -40 0 -40 0 0 -1372z"/>
</g>
</svg>
