<?xml version="1.0" standalone="no"?>
<!DOCTYPE svg PUBLIC "-//W3C//DTD SVG 20010904//EN"
 "http://www.w3.org/TR/2001/REC-SVG-20010904/DTD/svg10.dtd">
<svg version="1.0" xmlns="http://www.w3.org/2000/svg"
 width="2075.000000pt" height="740.000000pt" viewBox="0 0 2075.000000 740.000000"
 preserveAspectRatio="xMidYMid meet">
<metadata>
Created by potrace 1.15, written by Peter Selinger 2001-2017
</metadata>
<g transform="translate(0.000000,740.000000) scale(0.100000,-0.100000)"
fill="#000000" stroke="none">
<path d="M2603 7385 c-12 -8 -32 -32 -45 -52 l-23 -38 0 -390 c1 -285 6 -449
19 -610 22 -275 20 -508 -7 -548 -37 -57 -107 -78 -187 -57 -33 9 -60 27 -101
69 -67 69 -105 144 -178 356 -66 190 -137 336 -195 402 -176 199 -872 450
-1501 542 -189 28 -278 27 -330 -2 -51 -29 -64 -63 -45 -120 13 -38 20 -44 66
-59 57 -19 193 -39 429 -63 547 -57 860 -175 1118 -424 165 -159 233 -267 327
-525 86 -235 151 -333 280 -421 126 -86 248 -115 475 -115 269 1 381 22 458
86 41 34 168 174 216 239 84 111 186 322 266 545 78 221 124 285 289 409 126
94 195 135 466 276 129 67 255 134 279 149 59 38 122 65 211 91 72 21 76 24
89 62 16 45 11 78 -20 117 -21 26 -26 28 -78 24 -246 -20 -1229 -578 -1363
-775 -15 -21 -63 -123 -108 -228 -172 -399 -274 -569 -372 -621 -77 -40 -170
10 -217 116 -30 69 -39 144 -51 425 -6 143 -15 339 -21 435 -5 96 -14 270 -18
385 -7 187 -11 217 -32 270 -20 49 -29 61 -49 63 -14 1 -35 -4 -47 -13z"/>
<path d="M4890 7051 c-58 -20 -150 -62 -205 -94 -55 -32 -176 -97 -270 -144
-294 -149 -469 -264 -572 -376 -50 -54 -71 -93 -111 -209 -78 -220 -178 -438
-259 -559 -50 -77 -164 -210 -245 -285 -97 -92 -149 -108 -393 -123 -363 -22
-570 34 -735 199 -95 96 -142 178 -223 395 -71 190 -83 215 -140 299 -115 170
-311 334 -501 421 -231 105 -510 156 -1092 200 l-81 6 -17 -34 c-9 -19 -16
-44 -16 -55 0 -52 94 -83 320 -108 193 -20 317 -47 480 -101 246 -81 448 -192
557 -304 71 -72 80 -86 120 -187 19 -48 76 -170 127 -272 51 -102 115 -236
142 -299 41 -96 61 -127 126 -201 61 -69 93 -95 148 -124 178 -94 472 -156
732 -156 298 1 539 99 670 272 52 68 145 250 258 503 181 407 289 557 495 691
92 60 142 85 395 203 221 104 366 187 408 235 38 43 56 106 47 161 -7 46 -30
85 -48 84 -6 0 -59 -17 -117 -38z"/>
<path d="M4885 6668 c-38 -23 -164 -86 -280 -141 -115 -54 -252 -121 -302
-149 -227 -125 -321 -247 -503 -653 -127 -281 -215 -457 -263 -521 -194 -260
-478 -370 -889 -343 -219 14 -404 53 -566 121 -86 36 -192 104 -208 133 -5 11
-35 46 -66 78 -44 47 -65 83 -108 180 -29 67 -97 210 -150 317 -54 107 -112
233 -130 279 -26 66 -45 96 -89 141 -169 173 -531 323 -916 381 -77 11 -171
27 -208 35 -142 29 -183 14 -174 -63 6 -59 32 -86 73 -78 21 4 72 -5 146 -25
62 -16 210 -50 328 -75 365 -76 468 -119 578 -239 92 -102 142 -199 278 -546
216 -549 296 -631 710 -736 216 -54 337 -68 614 -68 266 0 355 10 507 60 293
96 454 308 651 860 51 142 84 209 138 278 88 112 315 271 587 413 98 50 192
102 210 115 71 49 140 115 158 150 35 69 18 138 -34 138 -12 0 -53 -19 -92
-42z"/>
<path d="M4935 6390 c-27 -22 -125 -78 -216 -125 -266 -137 -475 -278 -578
-390 -60 -66 -92 -132 -162 -326 -166 -466 -325 -693 -564 -809 -194 -95 -378
-124 -725 -117 -256 5 -380 21 -591 76 -218 57 -339 114 -428 201 -112 110
-175 228 -330 620 -56 141 -123 293 -149 340 -54 96 -136 190 -196 225 -84 48
-381 125 -720 185 l-180 32 -23 -26 c-36 -42 -26 -109 22 -140 12 -8 93 -24
179 -36 264 -35 392 -68 539 -142 187 -93 256 -208 472 -793 124 -336 203
-462 348 -556 118 -76 209 -94 557 -109 272 -11 365 -27 470 -80 33 -17 79
-47 101 -67 l40 -36 16 24 c69 99 153 133 488 194 350 65 427 116 574 380 45
80 76 156 117 285 113 350 201 537 289 618 77 71 208 150 420 254 302 148 309
152 332 188 15 21 23 48 23 76 0 35 -5 47 -31 68 -17 14 -34 26 -37 25 -4 0
-29 -18 -57 -39z"/>
<path d="M14045 6254 c-384 -40 -713 -149 -972 -321 -314 -209 -508 -489 -585
-846 -31 -144 -31 -457 0 -627 49 -270 141 -456 312 -633 259 -270 687 -428
1295 -477 72 -5 189 -15 260 -21 457 -38 656 -152 657 -379 1 -85 -25 -145
-90 -208 -88 -86 -231 -147 -413 -178 -146 -24 -387 -15 -520 19 -243 63 -400
194 -425 355 l-7 42 -583 0 c-550 0 -584 -1 -584 -17 1 -156 47 -393 101 -525
217 -527 767 -875 1507 -953 822 -88 1630 212 1976 732 159 240 225 489 213
803 -24 591 -285 938 -845 1119 -220 72 -458 115 -907 166 -366 42 -491 68
-621 130 -89 43 -164 121 -189 196 -24 72 -17 196 15 264 36 77 134 167 232
214 135 65 235 86 418 85 139 -1 164 -3 245 -28 118 -36 178 -69 245 -136 59
-58 94 -121 105 -186 3 -21 8 -49 11 -61 l4 -23 570 0 570 0 0 76 c0 174 -55
405 -133 560 -61 121 -157 254 -252 348 -253 252 -626 426 -1055 491 -101 16
-468 28 -555 19z m555 -534 c330 -71 599 -236 749 -460 l43 -65 -34 -3 c-27
-3 -37 1 -53 24 -171 235 -416 387 -728 449 -362 72 -795 7 -1067 -161 -315
-194 -453 -448 -437 -804 12 -239 67 -388 196 -523 158 -166 434 -259 881
-297 394 -33 497 -44 625 -65 320 -54 509 -137 648 -284 140 -149 197 -315
197 -576 0 -130 -14 -210 -56 -314 -204 -516 -1024 -801 -1756 -612 -300 78
-544 234 -679 432 -56 82 -57 89 -21 89 25 0 37 -9 65 -48 85 -115 234 -235
385 -311 331 -167 841 -202 1243 -86 373 107 640 334 729 620 43 136 37 389
-12 539 -75 231 -247 379 -521 451 -181 47 -284 61 -687 90 -716 52 -1023 176
-1197 483 -93 166 -136 447 -99 652 74 407 446 706 991 796 130 21 464 13 595
-16z"/>
<path d="M17996 6148 c-24 -51 -498 -1064 -1055 -2251 l-1011 -2157 0 -85 0
-85 593 0 593 0 135 288 136 287 919 2 919 3 135 -290 135 -289 593 -1 592 0
0 88 0 87 -1057 2248 -1056 2247 -264 0 -264 0 -43 -92z m1154 -2350 c458
-970 835 -1767 838 -1771 2 -5 -13 -7 -34 -5 l-38 3 -155 327 -154 328 -1297
0 -1297 0 -159 -330 -159 -330 -37 0 -36 0 137 293 c76 160 449 957 831 1770
514 1095 698 1477 710 1477 12 0 232 -456 850 -1762z"/>
<path d="M17673 4102 c-342 -730 -625 -1335 -629 -1344 -6 -17 59 -18 1265
-18 699 0 1271 3 1271 8 -1 16 -1268 2676 -1276 2679 -5 1 -289 -595 -631
-1325z m871 -368 c130 -279 235 -509 233 -511 -2 -2 -216 -2 -475 -1 l-471 3
231 508 c127 279 234 507 238 507 4 0 113 -228 244 -506z"/>
<path d="M8170 3885 l0 -2315 625 0 625 0 2 1123 3 1124 1170 -1123 1170
-1123 223 0 222 -1 0 2305 0 2305 -620 0 -620 0 -2 -1116 -3 -1116 -1170 1126
-1170 1125 -227 0 -228 1 0 -2315z m3450 235 l0 -1610 -20 0 c-20 0 -405 363
-1205 1135 -944 911 -1121 1081 -1330 1278 -126 119 -233 217 -237 217 -4 0
-8 -697 -8 -1550 l0 -1550 -35 0 -35 0 0 1606 0 1605 34 -3 c30 -3 77 -43 358
-313 177 -170 478 -463 668 -650 190 -187 478 -464 640 -616 162 -151 450
-426 639 -610 189 -184 373 -360 408 -392 l63 -59 0 1561 0 1561 30 0 30 0 0
-1610z"/>
<path d="M5600 5665 l0 -515 275 0 275 0 0 -1270 0 -1270 -300 0 -300 0 0
-520 0 -520 1190 0 1190 0 0 520 0 520 -295 0 -295 0 0 1270 0 1270 275 0 275
0 0 515 0 515 -1145 0 -1145 0 0 -515z m1820 -5 l0 -30 -325 0 -325 0 0 -1760
0 -1760 350 0 350 0 0 -25 0 -25 -730 0 -730 0 0 25 0 25 355 0 355 0 0 1760
0 1760 -325 0 -325 0 0 30 0 30 675 0 675 0 0 -30z"/>
<path d="M2285 4228 c-87 -11 -120 -25 -155 -64 -34 -39 -39 -83 -16 -138 14
-34 14 -34 100 -41 96 -8 128 0 169 43 18 20 26 42 30 85 10 101 -21 129 -128
115z"/>
<path d="M3148 4228 c-20 -5 -43 -17 -51 -26 -13 -14 -22 -83 -18 -139 1 -9
24 -13 82 -13 79 0 82 1 115 34 27 27 34 42 34 73 0 60 -22 83 -78 82 -26 -1
-64 -5 -84 -11z"/>
<path d="M2593 4200 c-70 -14 -91 -34 -98 -95 -11 -84 -3 -91 100 -85 80 5 89
7 111 33 31 37 33 108 4 137 -21 21 -48 23 -117 10z"/>
<path d="M2906 4189 c-78 -13 -109 -55 -90 -125 5 -19 13 -22 67 -23 89 -1
107 14 107 88 0 44 -4 60 -16 65 -9 3 -16 5 -17 5 -1 -1 -24 -5 -51 -10z"/>
<path d="M2875 3933 c-29 -7 -65 -43 -65 -65 0 -29 47 -115 72 -132 69 -48
168 -12 168 62 0 29 -64 107 -103 126 -36 17 -39 17 -72 9z"/>
<path d="M3170 3917 c-23 -12 -25 -17 -21 -77 6 -106 49 -146 131 -121 46 14
55 35 40 91 -18 66 -32 90 -61 106 -34 17 -56 18 -89 1z"/>
<path d="M2295 3904 c-77 -17 -108 -30 -130 -56 -28 -33 -31 -64 -11 -112 13
-32 14 -32 85 -34 74 -2 99 5 139 41 17 16 22 31 22 74 0 78 -30 102 -105 87z"/>
<path d="M2565 3895 c-22 -8 -48 -24 -57 -36 -20 -23 -23 -74 -8 -113 9 -25
14 -26 80 -26 111 0 150 29 150 110 0 67 -12 80 -73 80 -29 -1 -70 -7 -92 -15z"/>
<path d="M2912 3625 c-80 -25 -106 -72 -78 -139 l15 -36 71 0 c76 0 122 16
140 49 17 33 12 106 -8 124 -22 20 -80 21 -140 2z"/>
<path d="M2582 3605 c-65 -20 -82 -40 -82 -96 0 -78 2 -79 92 -79 78 0 81 1
114 34 28 28 34 42 34 75 0 76 -54 99 -158 66z"/>
<path d="M2293 3570 c-89 -18 -127 -72 -102 -143 l14 -40 80 2 c112 3 130 16
131 105 2 88 -13 97 -123 76z"/>
<path d="M2385 3269 c-68 -9 -99 -23 -124 -55 -23 -29 -27 -65 -11 -110 10
-28 13 -29 82 -31 114 -4 168 32 168 112 0 44 -19 80 -47 87 -10 2 -40 1 -68
-3z"/>
<path d="M2388 2956 c-65 -14 -86 -29 -104 -73 -11 -26 -11 -39 -1 -70 l12
-38 87 -3 c84 -3 88 -2 120 27 30 26 33 35 32 82 0 42 -5 56 -23 71 -26 21
-43 21 -123 4z"/>
<path d="M2417 2636 c-87 -24 -118 -80 -87 -160 9 -25 13 -26 94 -26 76 0 88
3 115 26 46 39 54 119 15 158 -18 19 -71 20 -137 2z"/>
<path d="M2505 2363 c-105 -15 -155 -51 -155 -114 0 -73 12 -84 92 -86 115 -4
168 32 168 115 0 32 -6 49 -25 67 -13 14 -30 24 -37 24 -7 -1 -26 -4 -43 -6z"/>
<path d="M2458 2013 c-25 -29 -45 -75 -53 -120 -6 -38 4 -102 31 -195 4 -12
21 -19 59 -23 104 -13 149 17 160 108 6 48 3 64 -20 114 -29 64 -57 98 -97
119 -36 19 -62 18 -80 -3z"/>
<path d="M17502 875 c-18 -36 -32 -68 -32 -70 0 -3 33 -5 73 -5 l73 0 62 63
c34 34 62 66 62 70 0 4 -46 7 -103 7 l-103 0 -32 -65z"/>
<path d="M1639 741 c-150 -28 -228 -144 -189 -280 21 -73 82 -114 227 -154
148 -40 188 -74 146 -125 -43 -53 -219 -45 -320 13 l-44 26 3 -83 3 -82 50
-20 c41 -17 74 -20 180 -21 123 0 133 2 188 28 78 39 110 87 115 173 3 50 0
72 -18 109 -28 57 -71 83 -210 125 -58 18 -117 38 -132 46 -54 28 -44 84 19
105 50 16 166 6 226 -20 27 -12 51 -21 53 -21 2 0 4 34 4 75 l0 74 -51 15
c-65 20 -189 28 -250 17z"/>
<path d="M5499 740 c-116 -21 -208 -90 -255 -193 -27 -57 -29 -71 -29 -177 0
-106 2 -120 28 -172 70 -143 232 -217 411 -188 202 32 317 182 303 398 -9 148
-89 265 -212 311 -62 23 -180 33 -246 21z m149 -142 c58 -14 122 -76 140 -134
55 -187 -74 -351 -248 -315 -107 22 -171 106 -171 225 0 108 51 191 137 221
49 18 82 18 142 3z"/>
<path d="M8280 739 c-110 -22 -213 -100 -259 -199 -23 -49 -26 -67 -26 -170 0
-100 3 -121 23 -161 37 -75 87 -125 160 -161 65 -32 69 -33 202 -33 117 0 142
3 193 23 l57 23 0 81 c0 44 -3 78 -7 76 -106 -54 -132 -62 -209 -66 -95 -5
-141 7 -190 51 -53 45 -75 98 -75 172 0 203 215 297 418 184 29 -16 55 -29 58
-29 3 0 5 35 5 79 l0 79 -47 20 c-90 38 -205 50 -303 31z"/>
<path d="M9380 737 c-184 -42 -290 -193 -277 -394 11 -186 118 -303 305 -334
177 -29 339 49 414 199 20 41 23 61 23 167 0 146 -18 197 -99 273 -87 83 -236
119 -366 89z m163 -138 c151 -42 202 -266 90 -390 -62 -69 -172 -85 -263 -39
-69 35 -109 110 -110 205 0 162 131 266 283 224z"/>
<path d="M13667 740 c-111 -20 -206 -93 -259 -198 -20 -41 -23 -61 -23 -167 0
-111 2 -124 28 -177 70 -143 232 -217 411 -188 127 20 218 86 272 196 27 54
29 68 29 169 0 105 -2 114 -33 177 -39 80 -102 139 -177 167 -62 23 -180 33
-248 21z m151 -142 c58 -14 122 -76 140 -134 55 -187 -74 -351 -248 -315 -107
22 -171 106 -171 225 0 108 51 191 137 221 49 18 82 18 142 3z"/>
<path d="M14690 744 c-151 -26 -220 -95 -220 -217 0 -118 48 -167 207 -211 54
-16 117 -36 141 -46 36 -16 42 -23 42 -49 0 -16 -7 -37 -16 -45 -15 -16 -26
-19 -91 -30 -49 -8 -139 10 -209 43 l-64 30 0 -78 0 -78 38 -16 c91 -40 243
-49 346 -20 113 32 176 127 159 239 -15 98 -59 133 -229 184 -136 41 -167 60
-162 99 7 59 139 80 248 40 100 -37 91 -41 88 42 l-3 73 -47 18 c-48 17 -181
30 -228 22z"/>
<path d="M20289 740 c-157 -28 -263 -140 -289 -303 -34 -219 89 -394 301 -428
235 -38 429 107 446 334 14 180 -78 332 -229 381 -63 20 -168 28 -229 16z
m193 -162 c76 -42 114 -126 105 -231 -13 -146 -140 -234 -279 -193 -96 28
-152 108 -152 221 0 112 55 195 152 226 43 14 128 3 174 -23z"/>
<path d="M190 670 l0 -70 30 0 30 0 0 -225 0 -225 -30 0 -30 0 0 -65 0 -65
135 0 135 0 0 65 0 65 -30 0 -30 0 0 225 0 225 30 0 30 0 0 70 0 70 -135 0
-135 0 0 -70z"/>
<path d="M580 670 l0 -70 30 0 30 0 0 -225 0 -225 -30 0 -30 0 0 -65 0 -65
135 0 135 0 0 65 0 65 -30 0 -30 0 1 213 0 212 67 -140 c37 -77 97 -202 132
-277 l65 -138 123 0 122 0 0 290 0 290 35 0 35 0 0 70 0 70 -140 0 -140 0 0
-70 0 -70 35 0 35 0 0 -217 -1 -218 -57 120 c-32 66 -94 195 -137 288 l-79
167 -153 0 -153 0 0 -70z"/>
<path d="M2030 670 l0 -70 120 0 120 0 0 -225 0 -225 -30 0 -30 0 0 -65 0 -65
135 0 135 0 0 65 0 65 -30 0 -30 0 0 225 0 225 120 0 120 0 0 70 0 70 -315 0
-315 0 0 -70z"/>
<path d="M2730 670 l0 -70 30 0 30 0 0 -225 0 -225 -30 0 -30 0 0 -65 0 -65
135 0 135 0 0 65 0 65 -30 0 -30 0 0 225 0 225 30 0 30 0 0 70 0 70 -135 0
-135 0 0 -70z"/>
<path d="M3070 670 l0 -70 120 0 120 0 0 -225 0 -225 -30 0 -30 0 0 -65 0 -65
135 0 135 0 0 65 0 65 -30 0 -30 0 0 225 0 225 120 0 120 0 0 70 0 70 -315 0
-315 0 0 -70z"/>
<path d="M3740 670 l0 -70 35 0 35 0 0 -178 c0 -212 11 -262 72 -328 57 -62
122 -84 248 -84 126 0 191 22 248 84 61 66 72 116 72 328 l0 178 35 0 35 0 0
70 0 70 -140 0 -140 0 0 -70 0 -70 30 0 30 0 0 -157 c0 -87 -5 -174 -10 -194
-37 -132 -253 -143 -310 -16 -17 36 -20 66 -20 205 l0 162 30 0 30 0 0 70 0
70 -140 0 -140 0 0 -70z"/>
<path d="M4560 670 l0 -70 120 0 120 0 0 -225 0 -225 -30 0 -30 0 0 -65 0 -65
135 0 135 0 0 65 0 65 -30 0 -30 0 0 225 0 225 120 0 120 0 0 70 0 70 -315 0
-315 0 0 -70z"/>
<path d="M6320 670 l0 -70 30 0 30 0 0 -225 0 -225 -30 0 -30 0 0 -65 0 -65
140 0 140 0 0 65 0 65 -35 0 -35 0 0 217 c0 119 2 214 5 212 2 -3 63 -128 134
-279 l131 -275 125 -3 125 -3 0 291 0 290 30 0 30 0 0 70 0 70 -135 0 -135 0
0 -70 0 -70 30 0 30 0 0 -212 0 -213 -133 280 -133 280 -157 3 -157 3 0 -71z"/>
<path d="M7343 448 l-109 -293 -37 -3 -37 -3 0 -65 0 -65 97 3 96 3 31 85 32
85 144 3 145 2 31 -87 31 -88 96 -3 97 -3 0 66 0 65 -34 0 -33 0 -109 295
-109 295 -111 0 -112 0 -109 -292z m269 7 l46 -125 -94 0 c-52 0 -94 3 -94 8
0 14 85 242 90 242 3 0 26 -56 52 -125z"/>
<path d="M8730 670 l0 -70 30 0 30 0 0 -225 0 -225 -30 0 -30 0 0 -65 0 -65
140 0 140 0 0 65 0 65 -35 0 -35 0 0 225 0 225 35 0 35 0 0 70 0 70 -140 0
-140 0 0 -70z"/>
<path d="M9950 670 l0 -70 30 0 30 0 0 -225 0 -225 -30 0 -30 0 0 -65 0 -65
135 0 135 0 0 65 0 65 -30 0 -30 0 1 213 1 212 84 -175 c46 -96 105 -221 131
-277 l48 -102 128 -1 127 0 0 290 0 290 30 0 30 0 0 70 0 70 -135 0 -135 0 0
-70 0 -70 30 0 30 0 0 -217 0 -218 -137 288 -137 287 -153 0 -153 0 0 -70z"/>
<path d="M11066 708 c-8 -18 -57 -151 -111 -295 l-97 -263 -34 0 -34 0 0 -65
0 -65 94 0 94 0 32 90 32 90 143 0 143 0 31 -81 c17 -44 31 -85 31 -90 0 -5
45 -9 100 -9 l100 0 0 64 0 65 -37 3 -36 3 -84 225 c-46 124 -95 255 -109 293
l-26 67 -109 0 -110 0 -13 -32z m168 -247 c25 -69 46 -126 46 -128 0 -2 -43
-3 -96 -3 -53 0 -94 4 -92 8 2 5 23 63 47 130 25 67 46 120 47 119 2 -1 23
-58 48 -126z"/>
<path d="M11650 670 l0 -70 30 0 30 0 0 -225 0 -225 -30 0 -30 0 0 -65 0 -65
295 0 295 0 0 65 0 65 -190 0 -190 0 0 225 0 225 35 0 35 0 0 70 0 70 -140 0
-140 0 0 -70z"/>
<path d="M12570 671 l0 -71 30 0 30 0 0 -225 0 -225 -30 0 -30 0 0 -66 0 -66
243 4 242 3 62 29 c76 35 142 102 169 171 15 39 19 76 19 165 0 106 -2 119
-27 166 -36 69 -105 128 -181 155 -55 19 -88 22 -294 26 l-233 5 0 -71z m441
-82 c92 -31 141 -103 141 -208 1 -158 -87 -231 -279 -231 l-83 0 0 225 0 225
94 0 c51 0 108 -5 127 -11z"/>
<path d="M15110 670 l0 -70 35 0 35 0 0 -225 0 -225 -35 0 -35 0 0 -65 0 -65
305 0 305 0 0 65 0 65 -195 0 -195 0 0 80 0 80 185 0 185 0 0 70 0 70 -185 0
-185 0 0 75 0 75 195 0 195 0 0 70 0 70 -305 0 -305 0 0 -70z"/>
<path d="M15820 670 l0 -70 30 0 30 0 0 -225 0 -225 -30 0 -30 0 0 -65 0 -65
135 0 135 0 0 65 0 65 -30 0 -30 0 0 218 0 217 68 -150 68 -150 90 -3 89 -3
65 146 c35 80 65 145 67 145 2 0 3 -94 3 -210 l0 -210 -30 0 -30 0 0 -65 0
-65 135 0 135 0 0 65 0 65 -30 0 -30 0 0 225 0 225 30 0 30 0 0 70 0 71 -146
-3 -145 -3 -67 -152 c-37 -84 -69 -153 -72 -153 -3 0 -35 69 -71 153 l-65 152
-152 3 -152 3 0 -71z"/>
<path d="M16810 670 l0 -70 30 0 30 0 0 -225 0 -225 -30 0 -30 0 0 -65 0 -65
135 0 135 0 0 65 0 65 -30 0 -30 0 0 225 0 225 30 0 30 0 0 70 0 70 -135 0
-135 0 0 -70z"/>
<path d="M17326 445 l-109 -295 -33 0 -34 0 0 -65 0 -65 93 0 93 0 33 90 33
90 143 0 143 0 33 -90 33 -90 98 0 98 0 0 64 0 65 -37 3 -36 3 -110 293 -110
292 -111 0 -111 0 -109 -295z m268 16 c25 -69 46 -126 46 -128 0 -2 -43 -3
-96 -3 -75 0 -95 3 -91 13 3 7 24 66 48 130 23 64 43 116 45 115 1 -2 23 -59
48 -127z"/>
<path d="M18053 733 l-43 -4 0 -65 0 -64 30 0 30 0 0 -225 0 -225 -30 0 -30 0
0 -65 0 -65 140 0 140 0 0 65 0 65 -35 0 -35 0 0 65 0 65 68 0 67 0 80 -130
80 -129 93 -1 92 0 0 65 0 65 -37 0 c-36 0 -41 4 -89 78 l-52 78 46 25 c70 37
94 91 90 196 -3 73 -6 85 -34 120 -16 21 -52 49 -80 63 -47 24 -57 25 -249 26
-110 1 -219 -1 -242 -3z m410 -145 c32 -16 46 -39 47 -71 1 -73 -47 -97 -190
-97 l-100 0 0 90 0 90 111 0 c65 0 119 -5 132 -12z"/>
<path d="M18800 670 l0 -70 30 0 30 0 0 -225 0 -225 -30 0 -30 0 0 -65 0 -65
140 0 140 0 0 65 0 65 -35 0 -35 0 0 225 0 225 35 0 35 0 0 70 0 70 -140 0
-140 0 0 -70z"/>
<path d="M19190 671 l0 -71 30 0 30 0 0 -225 0 -225 -30 0 -30 0 0 -65 0 -65
218 0 c278 0 348 18 434 107 56 58 80 122 86 228 8 148 -36 251 -133 316 -78
52 -130 61 -377 67 l-228 4 0 -71z m467 -95 c73 -34 106 -87 111 -176 5 -83
-10 -131 -55 -181 -45 -50 -108 -69 -225 -69 l-88 0 0 225 0 225 103 0 c87 0
110 -4 154 -24z"/>
</g>
</svg>
