<svg version="1.2" baseProfile="tiny" xmlns="http://www.w3.org/2000/svg" viewBox="0 0 3118.1 850.4" overflow="scroll"><g fill="#9D9D9C"><path d="M1673.7 272.1h-.7l-46.3-68v103.1h-14.2V179.8h14.6l46.3 69.5 46.3-69.5h14.6v127.4h-14.6V204.1l-46 68zM1779 179.5v127.4h-14.6V179.5h14.6zM1902.6 179.5h14.2v127.4h-11.6L1823 202.3v104.6h-13.8V179.5h13.4l80.3 102v-102h-.3zM1961.3 179.5v127.4h-14.6V179.5h14.6zM2037.1 236.2c28.4 6.3 41.5 16.4 41.5 36.2 0 22-18.3 36.2-43.3 36.2-20.2 0-36.6-6.7-51.9-20.5l9-10.5c13.4 12 26.1 17.9 43.7 17.9 17.2 0 28.4-9 28.4-21.7 0-12-6.3-18.7-33.2-24.3-29.1-6.3-42.9-15.7-42.9-37 0-20.5 17.6-35.1 41.8-35.1 18.7 0 31.7 5.2 44.8 15.7l-8.2 11.2c-12-9.7-23.5-13.8-36.6-13.8-16.4 0-27.3 9-27.3 20.9-.5 12.1 6.2 18.8 34.2 24.8zM2145.8 307.2h-14.6V192.9h-42.9v-13.4h100.1v13.4h-42.9v114.3h.3zM2300.4 192.5h-77.7v43.3h69.5v13.1h-69.5v44.8h78.8v13.1h-93V179.5h92.2v13.1h-.3zm-56-24.3l17.2-26.5 14.6 6.7-20.5 19.8h-11.3zM2410.6 307.2l-37-49.7h-36.2v49.7h-14.2V179.8h54.9c28 0 45.9 14.9 45.9 38.1 0 21.3-14.6 33.6-34.7 37.3l39.2 51.9h-17.9zm-34-114.3h-39.2v51.5h39.2c19 0 32.9-9.7 32.9-26.5-.1-15.7-12.4-25-32.9-25zM2462.9 179.5v127.4h-14.6V179.5h14.6zM2552.1 309c-38.8 0-64.6-30.3-64.6-65.7s26.5-66.1 65-66.1c38.8 0 64.6 30.3 64.6 65.7s-26.1 66.1-65 66.1zm0-118.3c-29.1 0-50 23.2-50 52.3 0 29.1 21.3 52.7 50 52.7 29.1 0 50-23.2 50-52.3.4-29.2-20.9-52.7-50-52.7zM2731.8 307.2h-44.1V179.8h44.1c40 0 67.6 27.6 67.6 63.5.3 35.9-27.3 63.9-67.6 63.9zm0-114.3h-29.9v100.8h29.9c32.1 0 52.7-22 52.7-50 .3-28.8-20.3-50.8-52.7-50.8zM2933.1 307.2h-15.3l-14.9-33.6h-69.5l-14.9 33.6h-14.6l57.9-128.5h13.4l57.9 128.5zm-65-111.7l-29.1 65h57.9l-28.8-65zM870.4 428.6c0-37.3 28.8-66.5 67.2-66.5 26.1 0 42.9 10.8 54.2 26.5l-26.5 20.5c-7.5-9-15.7-14.9-28-14.9-17.9 0-30.3 14.9-30.3 33.6v.4c0 19 12.7 34 30.3 34 13.4 0 21.3-6.3 28.8-15.3l26.5 19c-12 16.4-28.4 28.8-56.4 28.8-36.7 0-65.8-28-65.8-66.1zM1001.1 364.7h35.5V492h-35.5V364.7zM1052.3 364.7h102.3v29.9H1087V414h61.2v28H1087v20.2h68.7V492h-103.5V364.7zm37.7-38.5h28l23.2 29.9h-22l-15.3-11.2-15.3 11.2h-21.7l23.1-29.9zM1166.5 364.7h32.9l52.3 67.2v-67.2h35.1V492h-31l-54.5-69.8V492h-35.1V364.7h.3zM1297.6 428.6c0-37.3 28.8-66.5 67.2-66.5 26.1 0 42.9 10.8 54.2 26.5l-26.5 20.5c-7.5-9-15.7-14.9-28-14.9-17.9 0-30.3 14.9-30.3 33.6v.4c0 19 12.7 34 30.3 34 13.4 0 21.3-6.3 28.8-15.3l26.5 19c-12 16.4-28.4 28.8-56.4 28.8-36.3 0-65.8-28-65.8-66.1zM1428.3 364.7h35.5V492h-35.5V364.7zM1523.9 363.6h34l54.2 128.5h-37.7l-9.3-22.8h-49.3l-9 22.8h-37l54.1-128.5zm31 78.4l-14.2-36.2-14.6 36.2h28.8z"/><path d="M1609.5 508.9c12.3-1.5 18.7-7.1 18.3-17.2h-14.2v-35.5h35.9v29.1c0 26.9-14.6 36.2-37.3 37l-2.7-13.4zM1736.1 395.7H1698v-31h111.3v31h-38.1V492h-35.5v-96.4h.4zM1817.5 364.7h102.3v29.9h-67.6V414h61.6v28h-61.2v20.2h68.3V492h-103.5l.1-127.3zM1926.6 428.6c0-37.3 28.8-66.5 67.2-66.5 26.1 0 42.9 10.8 54.2 26.5l-26.5 20.5c-7.5-9-15.7-14.9-28-14.9-17.9 0-30.3 14.9-30.3 33.6v.4c0 19 12.7 34 30.3 34 13.4 0 21.3-6.3 28.8-15.3l26.5 19c-12 16.4-28.4 28.8-56.4 28.8-36.7 0-65.8-28-65.8-66.1zM2056.5 364.7h32.9l52.3 67.2v-67.2h35.1V492h-31l-54.5-69.8V492h-35.1V364.7h.3zM2187.6 428.6c0-37 29.5-66.5 68.7-66.5s68.3 29.1 68.3 65.7v.4c0 36.6-29.5 66.1-68.7 66.1s-68.3-29.1-68.3-65.7zm101.2 0c0-18.7-13.4-34.7-32.9-34.7-19.4 0-32.1 15.7-32.1 34v.4c0 18.3 13.4 34.4 32.5 34.4 19.4.2 32.5-15.5 32.5-34.1zM2335.9 364.7h35.5v96.4h61.6v31h-97.1V364.7zM2429.2 428.6c0-37 29.5-66.5 68.7-66.5s68.3 29.1 68.3 65.7v.4c0 36.6-29.5 66.1-68.7 66.1-39.1.4-68.3-29.1-68.3-65.7zm101.3 0c0-18.7-13.4-34.7-32.9-34.7-19.4 0-32.1 15.7-32.1 34v.4c0 18.3 13.4 34.4 32.5 34.4 19.4.2 32.5-15.5 32.5-34.1zM2573 428.6c0-37.3 29.1-66.5 68.7-66.5 22.4 0 38.1 7.1 51.5 18.7l-20.9 25c-9-7.8-18.3-12-30.6-12-18.3 0-32.5 15.3-32.5 35.1v.4c0 20.5 14.2 35.1 34.7 35.1 8.6 0 14.9-1.9 20.5-5.2v-15.3h-25v-25.8h58.6v57.5c-13.4 11.2-32.1 19.8-55.3 19.8-39.8-.7-69.7-28-69.7-66.8zM2710.8 364.7h35.5V492h-35.5V364.7zM2806.4 363.6h34l54.2 128.5h-37.7l-9.3-22.8h-49.3l-9 22.8h-37l54.1-128.5zm31 78.4l-14.2-36.2-14.6 36.2h28.8z"/><path d="M2892 508.9c12.3-1.5 18.7-7.1 18.3-17.2h-14.2v-35.5h35.9v29.1c0 26.9-14.6 36.2-37.3 37l-2.7-13.4zM183.9 549.6h35.5V677h-35.5V549.6zM235.1 549.6H268l52.3 67.2v-67.2h35.1V677h-31l-54.5-69.8V677h-35.1V549.6h.3zM366.6 613.8c0-37 29.5-66.5 68.7-66.5s68.3 29.1 68.3 65.7v.4c0 36.6-29.5 66.1-68.7 66.1s-68.3-29.1-68.3-65.7zm101.2 0c0-18.7-13.4-34.7-32.9-34.7-19.4 0-32.1 15.7-32.1 34v.4c0 18.3 13.4 34.4 32.5 34.4 19.4-.1 32.5-15.8 32.5-34.1zM496.5 549.6h39.2l28.8 80.7 28.8-80.7h38.8L580.6 678h-32.9l-51.2-128.4zM663.5 548.8h34l54.2 128.5H714l-9.3-22.8h-49.3l-9 22.8h-37l54.1-128.5zm31 78.1l-14.2-36.2-14.6 36.2h28.8zM787.5 697.1l14.2-19.4c-28.4-7.1-49.3-31.7-49.3-63.9v-.4c0-37 28.8-66.1 67.2-66.1 26.1 0 42.9 10.8 54.2 26.5l-26.5 20.5c-7.5-9-15.7-14.9-28-14.9-17.9 0-30.3 14.9-30.3 33.6v.4c0 19 12.7 34 30.3 34 13.4 0 21.3-6.3 28.8-15.3l26.5 19c-10.8 14.9-25.4 26.5-49.7 28.4l-10.1 29.1-27.3-11.5zM878.2 613.8c0-37 29.5-66.5 68.7-66.5s68.3 29.1 68.3 65.7v.4c0 36.6-29.5 66.1-68.7 66.1s-68.3-29.1-68.3-65.7zm30.3-75.8c3.7-17.9 10.1-27.3 22.4-27.3 10.8 0 22.4 7.1 28.4 7.1 5.2 0 7.1-2.6 9.3-8.2l16.4 4.5c-3.7 17.9-10.1 27.3-22.4 27.3-10.8 0-22.4-7.1-28.4-7.1-5.2 0-7.1 2.6-9.3 8.2l-16.4-4.5zm70.9 75.8c0-18.7-13.4-34.7-32.9-34.7s-32.1 15.7-32.1 34v.4c0 18.3 13.4 34.4 32.5 34.4 19.5-.1 32.5-15.8 32.5-34.1zM1026.5 549.6h102.3v29.9h-67.6v19.4h61.2v28h-61.2V647h68.3v29.9H1026V549.6h.5zM1130.7 658.2l19.8-23.5c12.7 10.1 26.5 15.3 41.5 15.3 9.3 0 14.6-3.4 14.6-8.6v-.4c0-5.2-4.1-8.2-21.7-12.3-27.3-6.3-48.2-13.8-48.2-40v-.4c0-23.5 18.7-40.7 49.3-40.7 21.7 0 38.5 6 52.3 16.8l-17.6 25c-11.6-8.2-24.3-12.7-35.9-12.7-8.6 0-12.7 3.7-12.7 8.2v.4c0 6 4.5 8.2 22 12.3 29.1 6.3 47.4 15.7 47.4 39.6v.4c0 26.1-20.5 41.5-51.5 41.5-22 .1-43.6-7-59.3-20.9zM1295 549.6h102.3v29.9h-67.6v19.4h61.2v28h-61.2V647h68.7v29.9H1295V549.6zM1447.8 613.8c0-37.3 28.8-66.5 67.2-66.5 26.1 0 42.9 10.8 54.2 26.5l-26.5 20.5c-7.5-9-15.7-14.9-28-14.9-17.9 0-30.3 14.9-30.3 33.6v.4c0 19 12.7 34 30.3 34 13.4 0 21.3-6.3 28.8-15.3l26.5 19c-12 16.4-28.4 28.8-56.4 28.8-36.3-.4-65.8-28-65.8-66.1zM1569.9 613.8c0-37 29.5-66.5 68.7-66.5s68.3 29.1 68.3 65.7v.4c0 36.6-29.5 66.1-68.7 66.1s-68.3-29.1-68.3-65.7zm101.2 0c0-18.7-13.4-34.7-32.9-34.7-19.4 0-32.1 15.7-32.1 34v.4c0 18.3 13.4 34.4 32.5 34.4 19.4-.1 32.5-15.8 32.5-34.1zM1718.2 549.6h37.3l30.3 49.3 30.3-49.3h37.3V677h-35.1v-73.2l-32.5 50h-.7l-32.5-49.7v72.8h-34.7V549.6h.3zM1867.2 621.3v-71.7h35.9v71c0 18.3 9.3 27.3 23.5 27.3s23.5-8.2 23.5-26.1v-71.7h35.9v70.6c0 41.1-23.5 59-59.8 59-36.2-.2-59-18.5-59-58.4zM1999.4 549.6h32.9l52.3 67.2v-67.2h35.1V677h-31l-54.5-69.8V677H1999V549.6h.4zM2135.7 549.6h35.5V677h-35.5V549.6zM2182.8 613.8c0-37.3 28.8-66.5 67.2-66.5 26.1 0 42.9 10.8 54.2 26.5l-26.5 20.5c-7.5-9-15.7-14.9-28-14.9-17.9 0-30.3 14.9-30.3 33.6v.4c0 19 12.7 34 30.3 34 13.4 0 21.3-6.3 28.8-15.3l26.5 19c-12 16.4-28.4 28.8-56.4 28.8-36.3-.4-65.8-28-65.8-66.1zM2355.7 548.8h34l54.2 128.5h-37.7l-9.3-22.8h-49.3l-9 22.8h-37l54.1-128.5zm31 78.1l-14.2-36.2-14.6 36.2h28.8zM2479.7 697.1l14.2-19.4c-28.4-7.1-49.3-31.7-49.3-63.9v-.4c0-37 28.8-66.1 67.2-66.1 26.1 0 42.9 10.8 54.2 26.5l-26.5 20.5c-7.5-9-15.7-14.9-28-14.9-17.9 0-30.3 14.9-30.3 33.6v.4c0 19 12.7 34 30.3 34 13.4 0 21.3-6.3 28.8-15.3l26.5 19c-10.8 14.9-25.4 26.5-49.7 28.4l-10.1 29.1-27.3-11.5zM2570.4 613.8c0-37 29.5-66.5 68.7-66.5s68.3 29.1 68.3 65.7v.4c0 36.6-29.5 66.1-68.7 66.1s-68.3-29.1-68.3-65.7zm30.3-75.8c3.7-17.9 10.1-27.3 22.4-27.3 10.8 0 22.4 7.1 28.4 7.1 5.2 0 7.1-2.6 9.3-8.2l16.4 4.5c-3.7 17.9-10.1 27.3-22.4 27.3-10.8 0-22.4-7.1-28.4-7.1-5.2 0-7.1 2.6-9.3 8.2l-16.4-4.5zm70.9 75.8c0-18.7-13.4-34.7-32.9-34.7-19.4 0-32.1 15.7-32.1 34v.4c0 18.3 13.4 34.4 32.5 34.4 19.5-.1 32.5-15.8 32.5-34.1zM2718.7 549.6H2821v29.9h-67.6v19.4h61.2v28h-61.2V647h68.3v29.9h-103.5V549.6h.5zM2823.3 658.2l19.8-23.5c12.7 10.1 26.5 15.3 41.5 15.3 9.3 0 14.6-3.4 14.6-8.6v-.4c0-5.2-4.1-8.2-21.7-12.3-27.3-6.3-48.2-13.8-48.2-40v-.4c0-23.5 18.7-40.7 49.3-40.7 21.7 0 38.5 6 52.3 16.8l-17.6 25c-11.6-8.2-24.3-12.7-35.9-12.7-8.6 0-12.7 3.7-12.7 8.2v.4c0 6 4.5 8.2 22 12.3 29.1 6.3 47.4 15.7 47.4 39.6v.4c0 26.1-20.5 41.5-51.5 41.5-22.4.1-43.7-7-59.3-20.9z"/></g></svg>