<svg version="1.2" baseProfile="tiny" xmlns="http://www.w3.org/2000/svg" viewBox="0 0 3118.1 850.4" overflow="scroll"><g fill="#9D9D9C"><path d="M856.7 708.7c-12.9 0-14.8-8.5-6.6-20.1 8.2-11 23.3-20.1 35.3-20.1 6.9 0 9.8 1.9 11.3 5.4-3.1 2.2-4.7 3.1-8.2 5-1.3-2.5-3.1-4.1-8.2-4.1-7.2 0-17.3 6.3-23 13.9-6 8.2-4.7 13.9 3.8 13.9 3.8 0 8.2-1.3 12-2.8 2.2-2.8 3.1-4.4 5-7.2h-10.4c1.6-2.5 2.5-3.5 4.4-6h17c-4.4 6.6-6.9 9.8-11.3 16.4-6 2.8-13.8 5.7-21.1 5.7zM961.5 708.7c-12.6 0-15.7-9.1-8.8-20.1 6.9-11 21.4-20.1 33.4-20.1s15.1 9.1 8.8 20.1-20.8 20.1-33.4 20.1zm20.8-34c-7.9 0-17.3 6.3-22 13.9-4.7 7.6-2.8 13.9 5.4 13.9s17.3-6.3 22-13.9c4.4-7.6 2.5-13.9-5.4-13.9zM1096.6 669.3h7.6c-12 13.2-23.9 26.1-35.9 39h-6.3c.9-15.7 1.9-23.3 3.5-39h7.6c-1.3 12-1.9 17.9-3.1 29.9 10.8-12.3 16.2-17.9 26.6-29.9zM1194.2 675.3h-22.3c-1.6 4.1-2.5 6-4.1 10.1h20.1c-.9 2.5-1.3 3.8-2.2 6h-20.1c-1.6 4.1-2.5 6.3-4.1 10.4h23.3c-.9 2.5-1.3 3.8-2.2 6h-30.8c6.3-15.4 9.8-23.3 16.1-38.7h29.3c-1.8 2.4-2.1 3.7-3 6.2zM1275.4 708c-2.5-5.4-3.8-8.2-6-13.5h-8.8c-1.6 5.4-2.5 8.2-4.1 13.5h-7.2c4.7-15.4 7.2-23.3 12.3-38.7h17.6c9.1 0 13.2 4.7 11.3 12.3-1.9 6.3-6.9 10.4-12.9 11.6 2.5 6 4.1 8.8 6.9 14.8h-9.1zm1.2-32.7h-10.1c-1.6 5.4-2.5 7.9-4.1 12.9h10.4c5 0 9.1-2.5 10.1-6.6 1.3-4.1-1.2-6.3-6.3-6.3zM1385.9 669.3h6.9c-2.8 15.4-4.1 23.3-6.6 38.7h-6c-6.9-11-10.4-16.7-17-27.7-2.2 11-3.5 16.7-5.7 27.7h-7.2c3.1-15.4 5-23.3 8.2-38.7h6.3c6.3 10.7 9.4 16.1 16.4 26.8 1.8-10.7 2.8-16.1 4.7-26.8zM1475 708.7c-12.6 0-20.5-9.1-19.2-20.1s10.7-20.1 22.7-20.1 20.1 9.1 19.2 20.1c-.7 10.9-10.2 20.1-22.7 20.1zm2.5-34c-7.9 0-13.9 6.3-14.8 13.9-.6 7.6 4.4 13.9 12.6 13.9s14.2-6.3 14.8-13.9c.6-7.6-4.8-13.9-12.6-13.9zM1666.7 675.3H1644c.3 4.1.6 6.3.9 10.7h20.1c.3 2.5.3 3.8.6 6.3h-20.5c.6 6.3.9 9.4 1.6 15.7h-7.2c-1.3-15.4-2.2-23.3-3.5-38.7h29.3c1 2.5 1.4 3.5 1.4 6zM1760.5 675.3h-22.3c.9 4.1 1.3 6 1.9 10.1h20.1c.6 2.5.9 3.8 1.3 6h-20.1c.9 4.1 1.3 6.3 1.9 10.4h23.3c.6 2.5.9 3.8 1.3 6h-30.8c-2.8-15.4-4.4-23.3-7.2-38.7h29.3c.6 2.4.9 3.7 1.3 6.2zM1850.5 708h-15.4c-4.4-15.4-6.6-23.3-11.3-38.7h14.8c12.3 0 23.6 8.5 27.4 19.2 3.7 11-2.6 19.5-15.5 19.5zm-9.8-32.7h-7.9c3.1 10.4 4.7 15.7 7.9 26.4h8.2c8.5 0 12.3-5.4 10.1-13.2-2.8-7.5-10.1-13.2-18.3-13.2zM1956.3 675.3H1934c1.6 4.1 2.5 6 4.1 10.1h20.1c.9 2.5 1.6 3.8 2.5 6h-20.1c1.6 4.1 2.5 6.3 4.1 10.4h23.3c.9 2.5 1.6 3.8 2.5 6h-30.8c-6.3-15.4-9.1-23.3-15.4-38.7h29.3c1.1 2.4 1.7 3.7 2.7 6.2zM2064.2 708c-6.9-5.4-10.4-8.2-17-13.5h-8.8c2.8 5.4 4.1 8.2 6.9 13.5h-7.2c-7.9-15.4-11.6-23.3-19.2-38.7h17.6c9.1 0 17 4.7 21.1 12.3 3.5 6.3 1.6 10.4-3.5 11.6 7.6 6 11.3 8.8 18.9 14.8h-8.8zm-25.5-32.7h-10.1c2.5 5.4 4.1 7.9 6.6 12.9h10.4c5 0 6.9-2.5 4.7-6.6-2.1-4.1-6.5-6.3-11.6-6.3zM2178.2 708h-7.6c-4.1-3.8-6-5.7-10.1-9.4h-19.2c.6 3.8.9 5.7 1.6 9.4h-7.2c-2.2-15.7-3.5-23.3-6-39h6.3c13.9 12.9 28 26.1 42.2 39zm-40.6-30.8c1.3 6.3 1.6 9.4 2.8 15.4h13.9c-7-6.3-10.1-9.4-16.7-15.4zM2216.6 669.3h6.9c9.4 12.9 14.2 19.5 23.3 32.4h21.4c1.9 2.5 2.8 3.8 4.7 6.3h-29c-10.9-15.4-16.6-23.3-27.3-38.7z"/></g><g fill="#9D9D9C"><path d="M1995.3 425l80.6 144.8h124.9l51.4 74h-231.4L1920.1 425M1906.5 425h-75.2l6.6 19.5c-7.9-3.8-15.7-7.2-24.2-10.1-8.2-2.8-16.7-5-25.5-6.9s-17.9-3.1-27.4-4.1c-9.4-.9-19.5-1.3-29.9-1.3-5.4 0-10.4.3-15.4.6-16.1 31.5-40 58.2-69.6 77.4 1.9 4.1 4.1 7.9 7.2 11.6 6.3 7.9 15.1 14.2 25.8 19.5 10.7 5.4 23 9.4 36.5 13.2 13.5 3.5 28.3 6.6 43.4 9.1 7.2 1.3 13.2 2.5 18.3 3.5 5 1.3 9.1 2.2 12 3.5 3.1 1.3 5.4 2.5 6.9 4.1 1.6 1.6 2.5 3.1 3.1 5 .3 1.6.3 3.1-.3 4.4-.6 1.3-1.6 2.5-3.1 3.1-1.6.9-3.8 1.6-6.6 1.9-2.8.3-6.3.6-10.4.6-7.9 0-16.1-.6-24.2-1.6s-16.7-2.8-24.9-5-16.7-5-24.9-8.8c-8.2-3.5-16.1-7.6-23.9-12.6l-24.9 30.5-37.8-67.4c-23.6 10.7-49.7 16.7-77.1 17l7.2 17.6h-47.5l9.4-19.5c-25.2-3.5-49.1-11.6-70.2-23.6l-59.8 94.1-24.2-43.8c8.8-3.5 16.7-7.6 23.9-12 7.2-4.4 13.5-9.8 18.9-15.4 5.4-5.7 9.8-11.6 13.2-18.3 2.8-5.7 5-12 6.3-18.6-23.3-17.3-42.8-39.7-56.7-65.5-2.2-.3-4.4-.6-6.9-.9-7.9-.9-17-1.3-26.8-1.3h-109.9l-13.9 32.1v-5c-.3-1.6-.6-3.1-.9-4.4-.3-1.3-.9-2.5-1.6-3.8-.6-1.3-1.6-2.2-2.2-3.5-2.2-2.5-5-5-8.2-6.9-3.5-1.9-7.2-3.5-12-5-4.7-1.3-10.1-2.2-16.1-2.8-6-.6-12.9-.9-20.8-.9h-125.9L865.8 643.5h159.6c12.3 0 23.9-.9 35.3-2.8 11-1.9 21.4-4.4 31.2-7.6 9.8-3.1 18.6-7.2 26.8-11.6 7.9-4.4 15.1-9.4 21.7-15.1l-16.1 37.1h96.3l24.9-74h18.9l30.8 74h161.5l17.9-36.2h97l15.7 36.2h104.5l-8.8-15.4c7.9 3.5 16.4 6.3 24.9 8.8 8.5 2.5 17.6 4.7 26.8 6.6s18.6 3.1 28 4.1c9.4.9 19.2 1.3 29 1.3 14.5 0 27.4-1.3 39-3.8 11.6-2.5 21.7-6 30.2-10.4s15.4-10.1 20.5-16.4 8.5-13.2 10.1-21.1l16.1 46h96.3L1906.5 425zM1083 559.8l-.3.6c-1.3 2.5-3.1 4.7-5.4 6.9s-5 4.1-8.5 5.7c-3.1 1.6-6.9 2.8-11 3.8-4.1.9-8.8 1.3-13.5 1.3h-45l20.8-34.9h43.8c4.7 0 8.5.3 11.6 1.3 3.1.9 5.4 1.9 6.9 3.5 1.6 1.6 2.5 3.1 2.5 5.4 0 1.3-.6 3.8-1.9 6.4zm32.8-75.6l-.3.6c-1.3 2.2-2.8 4.1-4.7 6-1.9 1.6-4.4 3.1-7.2 4.4-2.8 1.3-6 2.2-9.4 2.8-3.5.6-7.6.9-12 .9h-35.9l16.7-27.7h34.3c4.4 0 7.9.3 10.7.9 2.8.6 5 1.6 6.6 2.5 1.6 1.3 2.5 2.5 2.5 4.1.3 1.4-.4 3.3-1.3 5.5zm53.8 54.5c-1.3-2.8-2.8-5.4-4.7-7.6-1.9-2.2-4.4-4.4-7.2-6.3-2.8-1.9-6-3.5-9.4-5-3.5-1.6-7.2-2.8-11.3-3.8 6-1.6 12-3.5 17.6-5.7 5.7-2.2 10.7-4.7 15.7-7.6 4.7-2.8 9.1-6 13.2-9.1 4.1-3.5 7.6-6.9 10.7-11l-24.6 56.1zm167.5-43.8v.6c-.9 3.1-2.2 6-4.4 8.5s-4.7 4.7-7.9 6.3c-3.1 1.9-6.9 3.1-11.3 4.1-4.1.9-8.8 1.3-13.9 1.3h-36.2L1277 476h34.9c4.7 0 8.8.3 12.3 1.3 3.5.6 6.3 1.9 8.8 3.5 2.2 1.6 3.8 3.5 4.7 6 .3 2.1.3 5-.6 8.1zm510.2 20.5c-7.6-4.1-16.1-7.9-25.5-11-9.1-3.1-19.2-5.7-29.9-7.9s-22-4.1-33.7-6c-6.6-.9-12.3-1.9-16.7-2.8-4.4-.9-7.9-1.9-10.4-2.8-2.5-.9-4.4-2.2-5.7-3.1-1.3-1.3-1.9-2.2-2.2-3.8v-.6c-.3-1.3 0-2.2.3-3.1.6-.9 1.3-1.9 2.8-2.5 1.3-.6 2.8-1.3 5-1.6 2.2-.3 4.7-.6 7.6-.6 5.7 0 11.3.3 17.6.9 6.3.6 12.6 1.9 19.2 3.5s13.2 3.5 20.1 6 13.5 5.4 20.5 8.8l23.3-40.3 28.3 81.8c-5.8-5.8-12.7-10.5-20.6-14.9z"/></g><path fill="#9D9D9C" d="M1556.5 278.7c-103.6-35.6-198.6-32.7-212.2 6.3-3.1 8.8-1.6 18.6 3.5 29 .3-1.9.3-4.1.6-6-2.2-7.2-2.5-13.9-.3-20.1 12.9-37.5 105.5-39.7 206.8-5 101.4 34.6 172.8 93.5 159.9 131.3-2.2 6.3-6.6 11.3-12.6 15.7-.9 1.9-2.2 3.5-3.1 5.4 10.4-5 17.6-12 20.5-20.8 13.8-39.5-59.2-100.3-163.1-135.8z"/><g fill="#9D9D9C"><path d="M1374.2 237.7c.9-1.9 2.5-3.5 3.8-4.7 1.6-1.6 3.1-2.8 4.7-4.1 1.9-1.3 3.5-1.9 5.4-2.5 1.9-.6 3.5-.6 4.7-.6 1.3.3 2.2.6 2.8 1.6.6.9.9 1.9.9 3.5 0 1.3-.3 3.1-.9 4.7-.6 1.9-1.6 3.5-2.5 5.4-.9 1.6-2.5 3.5-3.8 4.7-1.6 1.6-3.1 2.8-4.7 3.8-1.9 1.3-3.5 1.9-5.4 2.5-1.9.6-3.5.6-4.7.6-1.3-.3-2.2-.6-2.8-1.6-.6-.9-.9-1.9-.9-3.5 0-1.3.3-2.8.9-4.7.6-1.6 1.3-3.5 2.5-5.1zm2.2 6.7c0 .9 0 1.6.3 2.2s.6.9 1.6 1.3c.6.3 1.6 0 2.8-.3s2.5-.9 3.5-1.6c.9-.6 1.9-1.6 2.8-2.5s1.6-1.9 2.2-3.1c.6-.9.9-2.2 1.3-3.1.3-.9.6-2.2.6-3.1s0-1.6-.3-2.2-.6-.9-1.6-1.3c-.6-.3-1.6 0-2.8.3-1.3.3-2.5.9-3.5 1.6-.9.6-1.9 1.6-2.8 2.5s-1.6 1.9-2.2 3.1c-.6.9-.9 2.2-1.6 3.1 0 1.2-.3 2.1-.3 3.1zM1416.7 221.7c1.3 0 2.2 0 2.8.3.9.3 1.6.6 1.9 1.3s.6 1.3.6 1.9c0 .6 0 1.6-.3 2.5-.6 1.6-1.3 2.8-2.2 3.8-.9 1.3-2.2 1.9-4.1 2.8.6 0 1.3.3 1.6.6.3.3.6.6.6 1.3v1.6s-.3 1.3-.3 1.9c0 .3-.3.9-.3 1.3-.3.6-.3.9-.3 1.6s-.3.9-.3 1.6 0 .9.3 1.3l-5.7.6c0-.6 0-1.6.3-2.8.3-.9.6-2.2.6-3.1.3-1.3.3-2.2-.3-2.8-.3-.6-1.3-.6-2.8-.6l-5.7.6-3.5 9.8-5.7.6 8.5-24.6 14.3-1.5zm-6 11.3c1.3 0 2.5-.6 3.1-1.3.9-.6 1.6-1.6 1.9-2.8.3-1.3.3-1.9 0-2.5-.3-.6-1.3-.6-2.5-.6l-6.3.6-2.5 6.9 6.3-.3zM1438.8 220.7c1.6 0 3.1.3 4.4.9s2.2 1.3 2.8 2.2 1.3 2.2 1.3 3.8-.3 3.5-.9 5.4c-.6 1.9-1.6 3.5-2.5 5s-2.2 2.8-3.5 3.8-2.8 1.9-4.7 2.5c-1.6.6-3.5.9-5.7.9h-11.3l8.5-24.6h11.6zm-7.6 20.2c.9 0 1.6 0 2.5-.3.9-.3 1.6-.6 2.5-1.3s1.6-1.3 2.2-2.2c.6-.9 1.3-2.2 1.9-3.5.3-1.3.6-2.5.6-3.5s0-1.9-.3-2.5-.9-1.3-1.9-1.6c-.9-.3-1.9-.6-3.5-.6h-4.1l-5.4 15.4 5.5.1zM1472.4 222.9l-1.6 4.4-13.9-1.3-1.9 5.4 12.6 1.3-1.6 4.1-12.6-1.3-2.2 6 13.9 1.3-1.6 4.4-19.8-1.9 8.5-24.6 20.2 2.2zM1483.5 224.5l.3 17.9 11.6-16.1 7.9 1.3-8.5 24.6-5.4-.9 6-17.6-12.3 16.4-4.4-.6-.3-18.3-6 17.3-5.4-.9 8.5-24.6 8 1.5zM1534.4 235.5l-1.6 4.4-13.2-3.5-1.9 5.4 12.3 3.1-1.6 4.1-12.3-3.1-2.2 6 13.5 3.5-1.6 4.4-19.2-4.7 8.5-24.6 19.3 5zM1557.1 242.1c1.6.6 2.8 1.3 3.8 1.9.9.9 1.6 1.6 2.2 2.5.3.9.6 1.9.6 3.1 0 .9-.3 2.2-.6 3.1s-.9 1.9-1.6 2.8c-.6.9-1.6 1.6-2.5 2.2-.9.6-1.9.9-3.1.9s-2.5 0-4.1-.6l-5.7-1.9-3.1 8.8-5.4-1.6 8.5-24.6 11 3.4zm-5.3 11.4c.6.3 1.3.3 1.9.3h1.6c.6 0 .9-.3 1.6-.6.3-.3.6-.9.9-1.9.3-.6.3-1.6.3-1.9 0-.6-.3-.9-.6-1.6-.3-.3-.9-.6-1.3-.9-.6-.3-1.3-.6-1.9-.6l-4.1-1.3-2.5 7.2 4.1 1.3zM1580.7 250.3c.9.3 1.9.9 2.8 1.6.6.6 1.3 1.6 1.9 2.2.3.9.6 1.9.6 2.8 0 .9 0 1.9-.3 2.8-.6 1.6-1.3 2.5-2.2 3.5s-2.2 1.3-3.8 1.3c.6.3.9.9 1.3 1.6.3.6.6 1.3.6 1.9v1.9c0 .6-.3 1.3-.3 1.9 0 .3-.3.9-.3 1.3-.3.6-.3.9-.3 1.6 0 .6-.3 1.3-.3 1.6v1.6l-5.4-1.9c0-.9 0-1.9.3-3.1s.6-2.2.6-3.1c.3-1.3.3-2.5-.3-3.1-.3-.9-1.3-1.6-2.5-1.9l-5.4-1.9-3.5 9.8-5.4-1.9 8.5-24.6 13.4 4.1zm-6 10.4c1.3.3 2.2.6 3.1.3.9-.3 1.6-1.3 1.9-2.2.3-1.3.3-2.2 0-2.8-.3-.6-1.3-1.3-2.5-1.9l-6-2.2-2.5 6.9 6 1.9zM1587.6 261c.9-1.3 2.2-2.5 3.8-3.1 1.3-.6 2.8-1.3 4.7-1.3 1.6 0 3.5.3 5.4.9 1.9.6 3.5 1.9 4.7 3.1s2.2 2.8 2.8 4.4c.6 1.6.9 3.1.9 5s-.3 3.8-.9 5.4c-.6 1.9-1.6 3.5-2.5 4.7s-2.2 2.2-3.8 3.1c-1.3.6-2.8 1.3-4.7 1.3-1.6 0-3.5-.3-5.4-1.3-1.9-.6-3.5-1.9-4.7-3.1-1.3-1.3-2.2-2.8-2.8-4.4-.6-1.6-.9-3.1-.9-5s.3-3.5.9-5.4c.3-1.1 1.3-2.7 2.5-4.3zm1.9 10.4c0 .9 0 2.2.3 3.1s.6 1.9 1.3 2.8c.6.9 1.6 1.6 2.8 1.9 1.3.6 2.2.6 3.1.6s1.9-.3 2.5-.9c.6-.6 1.6-1.3 1.9-2.2.6-.9.9-1.9 1.3-2.8.3-.9.6-2.2.6-3.1 0-1.3 0-2.2-.3-3.1s-.6-1.9-1.3-2.8c-.6-.9-1.6-1.6-2.8-1.9-1.3-.6-2.2-.6-3.1-.6-.9 0-1.9.3-2.5.9-.9.6-1.6 1.3-2.2 2.2-.6.9-.9 1.9-1.6 3.1.3.6 0 1.6 0 2.8zM1620.7 296c-1.3 0-2.5-.3-3.8-.9-1.9-.9-3.1-1.9-4.4-3.5-1.3-1.3-2.2-2.8-2.8-4.4-.6-1.6-.9-3.5-.9-5 0-1.9.3-3.5.9-5.4.6-1.9 1.6-3.5 2.5-4.7s2.2-2.2 3.8-3.1c1.3-.6 2.8-.9 4.7-.9 1.6 0 3.5.6 5 1.3 1.3.6 2.2 1.3 3.1 2.2.9.9 1.9 1.9 2.5 3.1.6 1.3.9 2.5 1.3 3.8s0 2.8-.3 4.4l-5-2.5c.3-1.6 0-2.8-.6-4.1-.6-1.3-1.6-1.9-2.8-2.5-1.3-.6-2.2-.9-3.1-.6-.9 0-1.9.3-2.5.9-.6.6-1.6 1.3-1.9 2.2-.6.9-.9 1.9-1.6 2.8-.3.9-.6 2.2-.6 3.1s0 2.2.3 3.1.6 1.9 1.3 2.8c.6.9 1.6 1.6 2.8 2.2 1.6.9 3.1.9 4.4.6 1.3-.3 2.2-1.6 2.8-3.1l-5-2.5 1.3-4.1 9.8 4.7-4.7 13.2-3.1-1.6.3-3.1c-1.2 1.3-2.4 1.6-3.7 1.6zM1650.6 283.1c.9.6 1.9 1.3 2.5 2.2.6.9 1.3 1.6 1.6 2.5.3.9.6 1.9.6 2.8 0 .9 0 1.9-.3 2.8-.6 1.6-1.3 2.5-2.2 3.1-.9.6-2.2.9-3.5.9.6.6.9.9 1.3 1.6.3.6.3 1.3.6 1.9v1.9c0 .6-.3 1.3-.3 1.9 0 .3-.3.9-.3 1.6-.3.6-.3 1.3-.3 1.6 0 .6-.3 1.3-.3 1.6v1.6l-5-2.8c0-.9 0-1.9.3-3.1s.6-2.2.6-3.1c.3-1.3.3-2.5 0-3.5s-1.3-1.6-2.5-2.5l-5-2.8-3.5 9.8-5-2.8 8.5-24.6 12.2 7.4zm-5.7 10c1.3.6 2.2.9 2.8.6.6-.3 1.3-.9 1.9-2.2.3-1.3.3-2.2 0-3.1s-1.3-1.6-2.2-2.2l-5.4-3.1-2.5 6.9 5.4 3.1zM1675.8 298.8l-1.6 4.4-11.6-7.6-1.9 5.4 10.7 6.9-1.6 4.1-10.7-6.9-2.2 6 11.6 7.6-1.6 4.4-16.7-10.7 8.5-24.6 17.1 11zM1675.2 321.8c0 .6.3 1.6.6 2.2.3.6.6 1.3 1.3 1.9.6.6.9 1.3 1.6 1.6.3.3.9.6 1.3.9.6.3.9.3 1.6.6.6 0 .9 0 1.3-.3.3-.3.6-.6.9-1.3.3-.6.3-1.3 0-1.9-.3-.6-.6-1.3-.9-2.2-.6-.6-.9-1.6-1.6-2.2-.6-.6-1.3-1.6-1.9-2.5-.6-.9-1.3-1.6-1.9-2.5s-1.3-1.9-1.6-2.8c-.3-.9-.6-1.9-.6-3.1 0-.9 0-2.2.3-3.1.3-1.3.9-2.2 1.9-2.8.6-.6 1.6-.9 2.5-.9s1.9 0 2.8.6c.9.3 1.9.9 2.8 1.6.9.9 2.2 1.9 2.8 2.8.9.9 1.6 2.2 2.2 3.5.6 1.3.9 2.5.9 3.8s0 2.8-.6 4.1l-4.4-3.5c.3-.6.3-1.6.3-2.2 0-.6-.3-1.3-.6-1.9-.3-.6-.6-.9-.9-1.6-.3-.6-.9-.9-1.6-1.3-.3-.3-.6-.6-1.3-.6-.3-.3-.9-.3-1.3-.3-.3 0-.6 0-.9.3-.3.3-.6.6-.6.9-.3.6-.3.9-.3 1.3 0 .3.3.9.6 1.6.3.6.9 1.3 1.6 2.2.6.9 1.6 1.9 2.8 3.5.3.3.9.9 1.6 1.9.6.6 1.3 1.6 1.6 2.8.6.9.9 2.2.9 3.5.3 1.3 0 2.5-.3 4.1-.3 1.3-.9 1.9-1.6 2.8-.6.6-1.6 1.3-2.5 1.3s-2.2 0-3.1-.3c-1.3-.3-2.5-1.3-3.8-2.2-1.3-.9-2.2-1.9-3.1-3.1s-1.6-2.5-2.2-3.8c-.6-1.3-.9-2.8-.9-4.1 0-1.6 0-2.8.6-4.4l4.4 3.5c-.7 0-.7.6-.7 1.6zM1693.4 336.6c0 .9.3 1.6.3 2.2.3.6.6 1.3.9 2.2.3.6.9 1.3 1.6 1.9.3.3.6.6 1.3.9.3.3.9.6 1.3.6h1.3c.3-.3.6-.6.9-1.3.3-.6.3-1.3 0-2.2-.3-.6-.6-1.6-.9-2.2-.3-.6-.9-1.6-1.6-2.5s-1.3-1.6-1.9-2.5c-.6-.9-1.3-1.9-1.9-2.8-.6-.9-.9-1.9-1.3-3.1-.3-.9-.6-2.2-.6-3.1 0-1.3 0-2.2.6-3.5.3-1.3.9-2.2 1.9-2.8.6-.6 1.6-.9 2.5-.6.9 0 1.9.3 2.8.6.9.6 1.9 1.3 2.8 1.9.9.9 1.9 1.9 2.8 3.1.9 1.3 1.6 2.5 1.9 3.8.6 1.3.6 2.5.9 4.1 0 1.3 0 2.8-.6 4.1l-4.1-3.8c.3-.6.3-1.6.3-2.2s-.3-1.3-.3-1.9c-.3-.6-.6-1.3-.9-1.6-.3-.6-.9-.9-1.3-1.6l-.9-.9c-.3-.3-.6-.3-.9-.3-.3 0-.6 0-.9.3-.3.3-.6.6-.6.9-.3.6-.3.9-.3 1.3 0 .3.3.9.6 1.6s.9 1.6 1.6 2.5c.6.9 1.6 2.2 2.5 3.8.3.3.6.9 1.3 1.9.6.9.9 1.9 1.6 2.8.3 1.3.6 2.2.9 3.8 0 1.3 0 2.5-.6 4.1-.3 1.3-.9 1.9-1.6 2.5-.6.6-1.6.9-2.2.9-.9 0-1.9-.3-3.1-.6-1.3-.6-2.2-1.6-3.5-2.5-.9-.9-1.9-2.2-2.8-3.5s-1.6-2.5-2.2-4.1c-.6-1.6-.9-2.8-.9-4.4 0-1.6.3-3.1.6-4.4l4.1 3.8c-1.1.9-1.4 1.8-1.4 2.8zM1711 338.2c.9-1.3 1.9-1.9 2.8-2.2.9-.3 2.2 0 3.1.6s2.2 1.9 3.5 3.5c1.3 1.6 2.2 3.5 2.8 5.4.6 1.9 1.3 4.1 1.3 6 .3 2.2.3 4.1 0 6.3s-.6 4.1-1.3 6c-.6 1.9-1.3 3.1-2.2 4.4-.9.9-1.9 1.9-2.8 1.9-.9.3-2.2 0-3.1-.6s-2.2-1.9-3.5-3.5c-1.3-1.6-2.2-3.5-2.8-5.4-.6-1.9-1.3-4.1-1.6-6s-.3-4.1 0-6 .6-4.1 1.3-5.7c1-2.2 1.6-3.8 2.5-4.7zm.4 12.2c-.3 1.3-.3 2.5-.3 3.8 0 1.3.3 2.5.6 3.8.3 1.3.9 2.2 1.6 3.5.6.9 1.6 1.6 2.2 1.9.6.3 1.3.3 1.9 0 .6-.3 1.3-.9 1.6-1.6.6-.6.9-1.6 1.3-2.8.3-.9.6-2.2.9-3.5.3-1.3.3-2.5.3-3.8 0-1.3-.3-2.5-.6-3.8-.3-1.3-.9-2.2-1.6-3.5-.6-.9-1.6-1.6-2.2-1.9-.6-.3-1.3-.3-1.9 0-.6.3-1.3.9-1.6 1.6-.6.9-.9 1.9-1.3 2.8-.6 1.3-.6 2.6-.9 3.5z"/></g><path fill="#9D9D9C" d="M1537.9 141.7c-64.2 0-120.9 31.5-155.5 80.3 37.1-15.7 110.2-11 188.2 16.1 78.1 26.8 138.8 68 158 103.2 0-2.8.3-5.7.3-8.5.1-105.8-85.5-191.1-191-191.1zm73.4 103.9l-8.5-5.7-8.5 5 2.2-9.4-7.9-6.6 9.8-.3 3.5-8.5 4.1 9.1 9.8 1.3-7.2 5.7 2.7 9.4zM1554 286.5c-46-15.7-92.2-24.6-129.7-24.6-39 0-64.8 9.4-71.8 25.8-3.5 14.5-5.4 29.6-5.4 45 0 105.5 85.6 191.1 191.1 191.1 77.4 0 143.9-46 174.1-112.1 9.4-35.1-62-92.1-158.3-125.2zm-188.6 7.3l2.8-7.2 1.9 7.2 6.3.3-5.4 5.4 1.3 7.6-5-4.1-5.4 4.4 1.9-7.6-4.1-4.7 5.7-1.3zm5.4 112l-4.7-3.8-3.8 2.5.6-5.7-4.1-4.4 4.7.3 1.3-5.7 2.5 6.3 5 .9-3.5 3.8 2 5.8zm16.3-13.2l-6-4.7-5 3.5.9-7.2-5-5.4h6.3s1.9-6.9 1.9-7.2l2.8 7.6 6.6.9-5 4.7 2.5 7.8zm12.6-17l-3.1-2.5-3.1 2.2.6-4.1-2.8-3.1h3.8l1.3-4.1 1.6 4.1 4.1.6-3.1 2.8.7 4.1zm275.1 27.4l3.1-7.6 1.9 7.2h6.6l-5.7 5.4.9 7.2-5.4-3.5-6.3 4.7 2.5-7.6-5-4.4 7.4-1.4zm-94.1-80.6l2.5-6 2.2 6 6.3.6-4.7 4.1 1.6 6.3-5.4-3.5-5.4 3.5 1.6-6-4.7-4.1 6-.9zm-162.4 109.9l-4.7-3.5-4.1 2.5.6-5-4.1-3.8 5 .3 1.6-5 2.5 5.4 5.4.9-3.8 3.1 1.6 5.1zm6.3-18.9l-5.7-3.8-5 2.8 1.3-6.3-5-4.7h6l1.9-6 2.8 6.6 6.3.9-4.7 4.1 2.1 6.4zm25.5 43.7l-6.9-4.4-6 3.1 1.3-6.9-6.3-5.4 7.6.3 2.2-6.6 3.5 7.2 7.9 1.3-5.7 4.1 2.4 7.3zm-1-114.8l1.6 6.9-6-4.1-5.7 3.8 1.6-6.9-5-4.7 6.9-.6 2.5-6.9 2.5 6.9 6.9.6-5.3 5zm58.3 58.2l-5.4-3.5-5.4 3.1 1.6-6-4.7-4.1 6-.3 2.5-5.7 2.2 6 6.3.6-4.7 4.1 1.6 5.8zm6.9 10.1l1.3-4.4-3.5-2.8 4.7-.3 1.6-4.4 1.9 4.4 4.7.3-3.8 2.8 1.3 4.4-4.1-2.5-4.1 2.5zm20.5 88.4l-2.8-1.6-3.1 1.6.9-2.5-2.5-1.9 3.5-.3 1.3-2.5 1.3 2.8 3.5.3-2.8 1.9.7 2.2zm4.1-54.4l-7.2-4.1-7.2 4.1 2.2-7.6-6.6-5 8.5-.3 3.1-7.6 3.1 7.6 8.5.6-6.6 5 2.2 7.3zm-1-70.9l1.9 7.2-6.3-4.1-6.3 3.8 1.9-7.2-5.7-4.7 7.6-.3 2.8-7.2 2.8 7.2 7.6.3-6.3 5zm22 26.2l-6.3-3.8-6.3 3.8 1.9-6.9-5.7-4.7 7.2-.3 2.8-6.9 2.5 6.9 7.6.3-6 4.7 2.3 6.9zm16.1 58.8l-5.4 2.8 1.6-5.4-4.4-3.5 6-.6 2.5-5.4 1.9 5 6 .3-4.7 3.8 1.3 5-4.8-2zm20.8 24.9l-5.4-2.5-6 3.1 1.9-5.4-5-3.5 6.9-.6 3.1-5.7 1.9 5.4h6.6l-5.4 4.1 1.4 5.1zm19.2-19.2l-4.4-2.5-5 3.1 1.9-5-4.1-3.1 5.7-.6 2.5-5 1.6 4.7h5.4l-4.4 3.8.8 4.6zm18.5 27.4l-3.8-1.6-4.7 2.8 1.9-4.4-3.5-2.5 5-.9 2.5-4.4 1.3 4.1 5-.3-4.4 3.5.7 3.7zm2.9-21.4l.6 5.4-4.7-2.5-5.7 3.5 2.2-5.7-4.4-3.1 6.3-.9 3.1-5.7 1.6 5 6-.3-5 4.3zm1.2-17.3l.6 4.7-4.1-2.2-5 3.1 1.9-5-3.8-3.1 5.7-.9 2.5-5 1.6 4.7 5.4-.3-4.8 4zm18.9 2.8l-4.1-2.2-4.7 3.1 1.9-5-3.5-2.8 5-.9 2.5-5 1.3 4.7 5-.3-4.4 3.8 1 4.6zm18-8.8l-4.1-2.5-5.4 3.8 2.2-6-3.8-3.5 6-1.3 2.8-6 1.3 5.4 5.4-.3-4.7 4.4.3 6zm10-15.5l-4.1-2.5-5 3.8 2.2-6-3.8-3.5 5.7-1.3 2.8-6 1.6 5.7 5.4-.3-4.7 4.4v5.7zm18.3-20.1l-3.1-2.2-4.1 3.1 1.6-5.4-3.1-3.1 4.4-.9 2.2-5.4.9 5 4.1-.3-3.5 3.8.6 5.4z"/></svg>