<svg version="1.2" baseProfile="tiny" xmlns="http://www.w3.org/2000/svg" viewBox="0 0 3118.1 850.4" overflow="scroll"><g fill="#9D9D9C"><path d="M1329.7 509.4V314.1h41.1v-27.2-24.6-26.9h-172.4v78.7h41.5v195.3h-45v79.1h179.4v-21.1-18.8-18.5-20.7h-44.6zm-47 37.3V277.5h-48.9v-5.2h102.4v5.2h-48.6v269.2h52.5v5.2H1229v-5.2h53.7zM1436 306.3h5.5c16.8 16.5 33.7 33 50.5 49.6 16.8 16.5 33.4 33 49.9 49.9 17.8 16.5 35.6 33.7 53.1 50.9 17.5 17.2 35.3 34.7 52.8 51.8V269.4h5.5v247.5h-3.9c-17.5-16.8-34.7-33.7-51.5-50.2-17.2-16.5-34-33-50.9-49.6-17.2-16.8-34.7-34-52.2-51.2-17.5-17.2-35.3-34.3-52.8-51.2v238.4h-6.2V306.3zm228.7 282.2h32.4V235.4h-92.3V408L1426 233.7h-32.7v354.7h93.7V414.8l177.7 173.7zM1932 311.5c-5.5-9.1-12.6-16.5-21.4-22.4s-18.5-10-28.8-13c-10.7-2.6-21.4-3.9-32.4-3.6-11 .3-21.7 1.9-32.1 5.2s-19.4 7.8-27.9 13.9c-8.1 5.8-14.6 13.3-19.4 22-4.9 8.7-7.1 18.8-7.1 30.1 0 13.9 2.6 25.3 7.1 34 4.9 8.7 11.3 15.2 19.4 20.1 8.1 4.5 17.8 8.1 28.8 10 11 1.9 22.7 3.6 35 4.2 10.4.6 20.4 1.6 30.5 2.9 10 1.3 19.1 3.2 27.9 5.8s16.2 6.5 23 11.7c6.5 4.9 11.7 11.7 15.6 19.8 3.9 8.1 5.5 18.5 5.8 31.1-.3 12.3-3.2 23-8.7 32.4-5.8 9.4-13.6 17.2-23.3 23.6-9.7 6.5-20.7 11.3-32.7 14.6-12 3.2-24.6 4.9-37.6 4.9s-25.3-1.6-37.3-4.9c-12-3.2-22.7-8.4-32.1-14.9-9.4-6.8-16.8-15.2-22.4-25.6h6.2c5.8 9.1 13.3 16.5 22.7 22.7 9.4 5.8 19.8 10.4 31.1 13.3 11.3 2.9 23 4.2 35 3.9 12-.3 23.3-1.6 34.7-4.9 11-3.2 21.1-7.5 30.1-13.6 8.7-5.8 15.9-13.3 21.1-21.7 5.2-8.4 7.8-18.5 8.1-29.5 0-12-1.9-22-5.5-29.8-3.6-7.8-8.4-13.9-14.9-18.5-6.2-4.5-13.6-7.8-22-10-8.1-2.3-17.2-3.9-26.6-4.9-9.4-1-19.1-1.6-29.2-2.3-13-1-24.9-2.6-36.3-4.9-11.3-2.3-21.4-5.8-30.1-11-8.7-5.2-15.6-12.3-20.7-21.4-5.2-9.4-7.8-21.4-8.4-36.6-.3-12.3 2.3-23 7.5-32.4 5.2-9.4 12.3-17.5 21.1-23.6 9.1-6.5 19.1-11.3 30.1-14.6 11.3-3.6 23-5.2 35-5.5 12-.3 24 1.3 35.3 4.5 11.3 3.2 21.7 8.1 30.8 14.6 9.4 6.5 16.5 14.9 22 24.9h-6.8v-.6zm-132.9 169.1h-87.2c0 17.2 2.9 32.7 9.4 46 6.2 13.3 14.9 24.6 25.9 34.3 11 9.4 23.6 16.8 37.9 22.7 14.3 5.5 29.2 9.4 45 11.3 15.9 1.9 31.7 1.9 47.6 0 15.9-1.9 31.1-5.5 45.4-11.3 14.3-5.5 27.2-13 38.2-22.4 11.3-9.4 20.1-20.4 26.6-33.4s9.7-27.5 9.7-44.1c0-17.5-2.6-32.4-7.8-44.1-5.2-12-12-21.4-21.1-28.8-9.1-7.5-19.1-13.3-31.1-17.2-11.7-4.2-24.3-7.5-37.9-9.4-13.6-2.3-27.2-3.9-41.5-5.5-8.1-1-15.6-1.9-22.4-3.2-7.1-1.3-13-3.2-18.1-5.8-5.2-2.6-9.1-5.8-12-10-2.9-4.2-3.9-9.7-3.6-16.5.6-5.8 2.6-11.3 6.5-15.6 3.6-4.5 8.4-8.1 14.3-10.7 5.8-2.9 12.3-4.5 19.1-5.5 6.8-1 13.6-1 20.4-.3 6.8 1 13 2.6 18.8 5.2 5.5 2.6 10 6.5 13.6 11 3.2 4.5 5.2 10.4 5.2 16.8h85.8c0-16.8-2.9-32.1-8.7-45-5.8-13.3-14.3-24.6-24.6-34-10.4-9.4-22.7-16.8-36-22.7-13.6-5.5-27.9-9.4-42.8-11.3-14.9-1.9-30.1-1.9-45 0-14.9 1.9-29.2 5.5-42.8 11.3-13.6 5.5-25.6 13.3-36 22.7-10.4 9.4-18.8 20.7-24.6 34-5.8 13.3-8.7 28.2-8.4 45 .3 19.1 3.6 35.3 9.7 48.6 6.2 13.3 14.9 24 26.2 32.4s24.6 14.6 40.2 19.1c15.6 4.5 33 7.1 52.2 8.4 9.1.3 17.2 1.3 24.9 2.3 7.8 1 14.6 2.6 20.7 4.9 5.8 1.9 10.4 5.2 13.9 9.1 3.2 3.9 5.2 8.7 5.2 14.9 0 5.8-1.9 11-6.2 15.2-3.9 4.2-9.1 7.8-15.9 10.4-6.5 2.6-13.9 4.2-21.7 5.2-7.8 1-15.9.6-23.6-.3-7.8-1-14.9-2.9-21.4-5.5-6.5-2.6-12-6.2-15.9-11-3.8-5.2-6.1-10.7-6.1-17.2zM2157.1 381.8l-36.3 81.3h73.9l-37.6-81.3zm128.3 172.7h-6.5l-23.3-49.9h-195.3l-23.6 49.9h-6.5l125.7-272.1h2.9l126.6 272.1zm-37.6 34h88.4v-13.3l-159.4-344.7H2138l-159.1 344.7v13.3h88.4l20.7-44.4h139.3l20.5 44.4zm-90.7-295.2h.6l95.9 205.4h-191.5l95-205.4zM2313.3 708.3c4.2 0 8.1-.6 11.7-1.9 3.6-1.3 6.5-3.2 8.7-5.8 2.6-2.6 4.5-5.5 5.8-9.1 1.3-3.6 1.9-7.5 1.9-11.7 0-4.2-.6-8.1-1.9-11.3-1.3-3.6-3.2-6.5-5.5-8.7-2.6-2.6-5.5-4.2-8.7-5.8-3.6-1.3-7.1-1.9-11.7-1.9-4.2 0-8.1.6-11.7 1.9s-6.5 3.2-8.7 5.8c-2.6 2.6-4.5 5.5-5.8 9.1-1.3 3.6-1.9 7.5-1.9 11.7 0 4.2.6 8.1 1.9 11.3 1.3 3.6 3.2 6.5 5.5 8.7 2.6 2.6 5.5 4.2 8.7 5.8 3.6 1.3 7.4 1.9 11.7 1.9m0-46.3c2.6 0 5.2.3 7.1 1.3 1.9 1 3.9 2.3 5.2 3.9 1.6 1.6 2.6 3.6 3.2 5.8.6 2.3 1.3 4.5 1.3 7.5 0 2.6-.3 5.2-1.3 7.5-.6 2.3-1.9 4.2-3.2 5.8-1.3 1.6-3.2 2.9-5.2 3.9-1.9 1-4.5 1.3-7.1 1.3s-5.2-.3-7.1-1.3c-1.9-1-3.9-2.3-5.2-3.9-1.6-1.6-2.6-3.6-3.2-5.8-.6-2.3-1.3-4.5-1.3-7.5 0-2.6.3-5.2 1.3-7.5.6-2.3 1.9-4.2 3.2-5.8 1.3-1.6 3.2-2.9 5.2-3.9 2.2-.6 4.5-1.3 7.1-1.3zm-63.9 45.4c6.8 0 12.3-1 16.8-3.2 4.5-2.3 7.8-5.5 10.4-9.4 2.3-4.2 3.6-9.1 3.6-14.9 0-4.5-.6-8.1-1.9-11.7-1.3-3.2-3.2-6.2-5.8-8.4-2.6-2.3-5.5-3.9-9.4-5.2-3.6-1.3-7.8-1.6-12.3-1.6h-25.6v9.7h4.5v35h-4.5v9.7h24.2zm-9.4-44.7h10.4c4.2 0 7.5.6 10.4 2.3 2.6 1.3 4.9 3.6 6.2 6.2 1.3 2.6 1.9 5.8 1.9 9.4 0 3.6-.6 6.8-1.9 9.4s-3.2 4.9-6.2 6.2c-2.6 1.6-6.2 2.3-10.4 2.3H2240v-35.8zm-40.1 34.9h-4.5v9.7h20.1v-9.7h-4.5v-35.3h4.5v-9.7h-20.1v9.7h4.5v35.3zm-48.9-20.4v-14.9h11.7c3.6 0 6.5.6 8.1 1.6 1.6 1.3 2.6 2.9 2.6 5.5s-1 4.5-2.6 5.8c-1.6 1.3-4.5 1.9-8.1 1.9H2151zm23 30.2h13v-9.7h-5.5L2173 685s.3 0 1-.3c.6 0 1.3-.3 1.9-.6 1-.3 1.6-1 2.6-1.6 1-.6 1.9-1.6 2.6-2.6 1-1 1.6-2.6 1.9-4.2.6-1.6 1-3.6 1-5.8 0-5.5-1.9-9.7-5.2-12.6-3.6-2.9-8.7-4.2-15.6-4.2h-27.3v9.4h4.5v35.3h-4.5v9.7h20.1v-9.7h-4.5V687H2161.4l12.6 20.4zm-59.3-69.7h-15.2l-4.9 10h10l10.1-10zm-14.6 24.6l7.8 21.7H2092l8.1-21.7zm16.2 45.1h13.6v-9.7h-5.2l-16.5-44.7H2092l-16.5 44.7h-4.9v9.7h13.3l5.2-13.9h22.4l4.8 13.9zm-66.7-9.8h-4.9v9.7h20.1v-9.7h-4.5v-35.3h4.5v-9.7h-20.1v9.7h4.5v35.3h.4zm-14-44.7h-21.4l-11 25.3-10.7-25.3h-22v9.7h4.5V698h-4.5v9.7h19.8V698h-4.5v-35.3l11 24.9h12.3l11-24.9V698h-4.5v9.7h20.1V698h-4.5v-35.3h4.5v-9.8zm-114 44.7h-4.5v9.7h45.4V698h-29.8v-13.3h28.2v-9.4h-28.2v-13h29.5v-9.4h-45v9.7h4.5l-.1 35zm-27.5-22c-2.9-.6-5.2-1.3-7.1-1.9-1.9-.6-3.6-1.3-4.5-1.6-1-.6-1.9-1.3-2.3-1.9-.6-.6-.6-1.6-.6-2.3 0-1 .3-1.9 1-2.6.6-.6 1.3-1.3 2.3-1.6 1-.3 1.9-.6 3.2-1 1.3-.3 2.6-.3 3.9-.3 1.9 0 3.9 0 5.5.3s3.2.6 4.2 1c1.3.3 2.3 1 3.2 1.3 1 .3 1.3.6 1.9 1 .3.3.6.3.6.3v-10.4s-.3-.3-1-.6c-.6-.3-1.6-.6-2.9-1.3-1.3-.3-2.9-1-4.9-1.3s-4.5-.6-7.1-.6c-2.9 0-5.8.3-8.4 1-2.6.6-4.9 1.6-6.8 3.2-1.9 1.3-3.2 2.9-4.5 5.2-1 1.9-1.6 4.2-1.6 7.1 0 2.3.3 4.5 1 6.2.6 1.6 1.6 3.2 2.9 4.5 1.3 1.3 2.9 2.3 4.9 3.2 1.9 1 4.2 1.6 6.8 2.3 2.9.6 5.2 1.3 7.1 1.9 1.9.6 3.2 1.3 4.5 1.6 1 .6 1.9 1.3 2.3 1.9.3.6.6 1.3.6 2.3 0 1.3-.3 2.3-1 3.2-.6 1-1.9 1.6-3.6 1.9-1.6.6-3.9.6-6.8.6-1.9 0-3.9-.3-5.8-.6-1.6-.3-3.2-1-4.9-1.3-1.3-.6-2.6-1-3.6-1.6-1-.6-1.9-1-2.3-1.3-.6-.3-1-.6-1-.6v11s.3 0 .6.3c.6.3 1.3.6 2.3 1 1 .3 2.3 1 3.6 1.3s2.9.6 4.9 1c1.9.3 3.9.3 6.2.3 3.9 0 7.5-.3 10-1.3 2.9-.6 5.2-1.9 7.1-3.6 1.9-1.6 3.2-3.2 4.2-5.2 1-1.9 1.3-4.2 1.3-6.8 0-2.3-.3-4.5-1-6.2-.6-1.6-1.6-3.2-2.9-4.5-1.3-1.3-2.9-2.3-4.9-3.2-1.5 0-3.7-.6-6.6-1.3zm-80.1 32.7c4.2 0 8.1-.6 11.7-1.9 3.6-1.3 6.5-3.2 8.7-5.8 2.6-2.6 4.5-5.5 5.8-9.1 1.3-3.6 1.9-7.5 1.9-11.7 0-4.2-.6-8.1-1.9-11.3-1.3-3.6-3.2-6.5-5.5-8.7-2.6-2.6-5.5-4.2-8.7-5.8-3.6-1.3-7.1-1.9-11.7-1.9-4.2 0-8.1.6-11.7 1.9-3.6 1.3-6.5 3.2-8.7 5.8-2.6 2.6-4.5 5.5-5.8 9.1-1.3 3.6-1.9 7.5-1.9 11.7 0 4.2.6 8.1 1.9 11.3 1.3 3.6 3.2 6.5 5.5 8.7 2.6 2.6 5.5 4.2 8.7 5.8 3.6 1.3 7.5 1.9 11.7 1.9zm0-46.3c2.6 0 5.2.3 7.1 1.3 1.9 1 3.9 2.3 5.2 3.9 1.6 1.6 2.6 3.6 3.2 5.8.6 2.3 1.3 4.5 1.3 7.5 0 2.6-.3 5.2-1.3 7.5-.6 2.3-1.9 4.2-3.2 5.8-1.3 1.6-3.2 2.9-5.2 3.9-1.9 1-4.5 1.3-7.1 1.3s-5.2-.3-7.1-1.3c-1.9-1-3.9-2.3-5.2-3.9-1.6-1.6-2.6-3.6-3.2-5.8-.6-2.3-1.3-4.5-1.3-7.5 0-2.6.3-5.2 1.3-7.5.6-2.3 1.9-4.2 3.2-5.8 1.3-1.6 3.2-2.9 5.2-3.9 2-.6 4.5-1.3 7.1-1.3zm-64.1 45.4c6.8 0 12.3-1 16.8-3.2 4.5-2.3 7.8-5.5 10.4-9.4 2.3-4.2 3.6-9.1 3.6-14.9 0-4.5-.6-8.1-1.9-11.7-1.3-3.2-3.2-6.2-5.8-8.4s-5.5-3.9-9.4-5.2c-3.6-1.3-7.8-1.6-12.3-1.6h-25.6v9.7h4.5v35h-4.5v9.7h24.2zm-9.4-44.7h10.4c4.2 0 7.5.6 10.4 2.3 2.6 1.3 4.9 3.6 6.2 6.2 1.3 2.6 1.9 5.8 1.9 9.4 0 3.6-.6 6.8-1.9 9.4s-3.2 4.9-6.2 6.2c-2.6 1.6-6.2 2.3-10.4 2.3h-10.4v-35.8zm-80 34.9h-4.5v9.7h43.4v-9.7h-28.2v-35.3h4.5v-9.7h-20.1v9.7h4.5v35.3h.4zm-40.2-35.3l7.8 21.7h-15.9l8.1-21.7zm16.2 45.1h13.6v-9.7h-5.2l-16.5-44.7h-16.2l-16.5 44.7h-5.2v9.7h13.3l5.2-13.9h22.4l5.1 13.9zm-109.2 0h19.8v-9.7h-4.5V662l21.1 45h18.1v-44.7h4.5v-9.7h-19.8v9.7h4.5v35.3l-21.1-45h-22.7v9.7h4.5v35.3h-4.5v9.8zm-35.9.9c4.2 0 8.1-.6 11.7-1.9 3.6-1.3 6.5-3.2 8.7-5.8 2.6-2.6 4.5-5.5 5.8-9.1 1.3-3.6 1.9-7.5 1.9-11.7 0-4.2-.6-8.1-1.9-11.3-1.3-3.6-3.2-6.5-5.5-8.7-2.6-2.6-5.5-4.2-8.7-5.8-3.6-1.3-7.1-1.9-11.7-1.9-4.2 0-8.1.6-11.7 1.9s-6.5 3.2-8.7 5.8c-2.6 2.6-4.5 5.5-5.8 9.1-1.3 3.6-1.9 7.5-1.9 11.7 0 4.2.6 8.1 1.9 11.3 1.3 3.6 3.2 6.5 5.5 8.7 2.6 2.6 5.5 4.2 8.7 5.8 3.6 1.3 7.1 1.9 11.7 1.9zm0-46.3c2.6 0 5.2.3 7.1 1.3 1.9 1 3.9 2.3 5.2 3.9 1.6 1.6 2.6 3.6 3.2 5.8.6 2.3 1.3 4.5 1.3 7.5 0 2.6-.3 5.2-1.3 7.5-.6 2.3-1.9 4.2-3.2 5.8-1.3 1.6-3.2 2.9-5.2 3.9-1.9 1-4.5 1.3-7.1 1.3-2.6 0-5.2-.3-7.1-1.3-1.9-1-3.9-2.3-5.2-3.9-1.6-1.6-2.6-3.6-3.2-5.8-.6-2.3-1.3-4.5-1.3-7.5 0-2.6.3-5.2 1.3-7.5.6-2.3 1.9-4.2 3.2-5.8 1.3-1.6 3.2-2.9 5.2-3.9 1.9-.6 4.2-1.3 7.1-1.3zm-51.2 35.6h-4.5v9.7h20.1v-9.7h-4.5v-35.3h4.5v-9.7h-20.1v9.7h4.5v35.3zm-13.3-5.1l-.6.6c-.3.3-1 1-1.9 1.3-1 .6-2.3 1.3-3.6 1.6-1.3.6-3.2 1-5.2 1.3-1.9.3-4.2.6-6.8.6-2.3 0-4.9-.3-6.8-1-2.3-.6-4.2-1.9-5.8-3.2-1.6-1.6-2.9-3.2-3.9-5.5s-1.6-4.9-1.6-7.8c0-2.9.3-5.2 1.3-7.5s2.3-4.2 3.9-5.8c1.6-1.6 3.6-2.9 5.8-3.6 2.3-1 4.5-1.3 7.5-1.3 2.6 0 4.5.3 6.5.6 1.9.3 3.6 1 5.2 1.6 1.3.6 2.6 1.3 3.6 1.9 1 .6 1.6 1.3 1.9 1.6l.6.6v-11.3l-.6-.6c-.6-.3-1.3-.6-2.3-1.3-1-.3-2.3-1-3.6-1.3-1.6-.3-3.2-1-5.2-1.3-1.9-.3-3.9-.6-6.5-.6-4.2 0-8.4.6-12 1.9-3.6 1.3-6.8 3.2-9.4 5.8-2.6 2.6-4.5 5.5-6.2 9.1-1.3 3.6-2.3 7.1-2.3 11.3 0 3.6.6 6.8 1.3 9.7 1 2.9 2.3 5.5 3.9 7.8s3.9 4.2 6.2 5.8c2.3 1.6 5.2 2.6 7.8 3.6 2.9.6 6.2 1.3 9.4 1.3 2.6 0 4.9-.3 6.8-.6 1.9-.3 3.9-.6 5.2-1.3 1.6-.3 2.9-1 3.9-1.3 1-.3 1.6-1 2.3-1.3.6-.3.6-.3.6-.6v-11h.6zm-80.3-30.2l7.8 21.7h-15.9l8.1-21.7zm16.2 45.1h13.6v-9.7h-5.2l-16.5-44.7h-16.2l-16.5 44.7h-5.2v9.7h13.3l5.2-13.9h22.4l5.1 13.9zm-109.2 0h19.8v-9.7h-4.5V662l21.1 45h18.1v-44.7h4.5v-9.7h-19.8v9.7h4.5v35.3l-21.1-45h-22.7v9.7h4.5v35.3h-4.5v9.8zm-56.1.9c4.2 0 8.1-.6 11.7-1.9 3.6-1.3 6.5-3.2 8.7-5.8 2.6-2.6 4.5-5.5 5.8-9.1 1.3-3.6 1.9-7.5 1.9-11.7 0-4.2-.6-8.1-1.9-11.3-1.3-3.6-3.2-6.5-5.5-8.7-2.6-2.6-5.5-4.2-8.7-5.8-3.6-1.3-7.1-1.9-11.7-1.9-4.2 0-8.1.6-11.7 1.9-3.6 1.3-6.5 3.2-8.7 5.8-2.6 2.6-4.5 5.5-5.8 9.1-1.3 3.6-1.9 7.5-1.9 11.7 0 4.2.6 8.1 1.9 11.3 1.3 3.6 3.2 6.5 5.5 8.7 2.6 2.6 5.5 4.2 8.7 5.8 3.6 1.3 7.5 1.9 11.7 1.9zm0-46.3c2.6 0 5.2.3 7.1 1.3 1.9 1 3.9 2.3 5.2 3.9 1.6 1.6 2.6 3.6 3.2 5.8.6 2.3 1.3 4.5 1.3 7.5 0 2.6-.3 5.2-1.3 7.5-.6 2.3-1.9 4.2-3.2 5.8-1.3 1.6-3.2 2.9-5.2 3.9-1.9 1-4.5 1.3-7.1 1.3s-5.2-.3-7.1-1.3c-1.9-1-3.9-2.3-5.2-3.9-1.6-1.6-2.6-3.6-3.2-5.8-.6-2.3-1.3-4.5-1.3-7.5 0-2.6.3-5.2 1.3-7.5.6-2.3 1.9-4.2 3.2-5.8 1.3-1.6 3.2-2.9 5.2-3.9 2-.6 4.2-1.3 7.1-1.3zm-63.5 35.6v9.7h20.1v-9.7h-4.5v-35h18.1v-9.7H1121v9.7h18.1v35h-5.1zm-22-34.9h4.5V653h-20.1v9.7h4.5v21.1c0 3.6-.6 6.5-1.6 8.4-1 2.3-2.6 3.9-4.5 4.9-1.9 1-4.2 1.6-7.1 1.6-2.9 0-5.2-.6-7.1-1.6-1.9-1-3.6-2.6-4.5-4.9-1-2.3-1.6-5.2-1.6-8.7v-20.7h4.5v-9.7h-20.1v9.7h4.5v22c0 4.2.6 7.8 1.6 11 1.3 2.9 2.9 5.5 4.9 7.5 2.3 1.9 4.5 3.2 7.8 4.2 2.9 1 6.2 1.3 9.7 1.3 3.6 0 6.8-.3 9.7-1.3 2.9-1 5.5-2.3 7.5-4.2 1.9-1.9 3.9-4.5 4.9-7.5 1.3-2.9 1.6-6.8 1.6-11v-22h.9zm-90.4 34.9v9.7h20.1v-9.7h-4.5v-35h18.1v-9.7h-46.7v9.7h18.1v35h-5.1zm-34.6 0h-4.5v9.7h20.1v-9.7H998v-35.3h4.5v-9.7h-20.1v9.7h4.5v35.3zm-43.8 0v9.7h20.1v-9.7h-4.5v-35h18.1v-9.7h-46.7v9.7h18.1v35h-5.1zm-31.7-22c-2.9-.6-5.2-1.3-7.1-1.9-1.9-.6-3.6-1.3-4.5-1.6-1-.6-1.9-1.3-2.3-1.9-.6-.6-.6-1.6-.6-2.3 0-1 .3-1.9 1-2.6.6-.6 1.3-1.3 2.3-1.6 1-.3 1.9-.6 3.2-1 1.3-.3 2.6-.3 3.9-.3 1.9 0 3.9 0 5.5.3s3.2.6 4.2 1c1.3.3 2.3 1 3.2 1.3 1 .3 1.3.6 1.9 1 .3.3.6.3.6.3v-10.4s-.3-.3-1-.6c-.6-.3-1.6-.6-2.9-1.3-1.3-.3-2.9-1-4.9-1.3-1.9-.3-4.5-.6-7.1-.6-2.9 0-5.8.3-8.4 1-2.6.6-4.9 1.6-6.8 3.2-1.9 1.3-3.2 2.9-4.5 5.2-1 1.9-1.6 4.2-1.6 7.1 0 2.3.3 4.5 1 6.2.6 1.6 1.6 3.2 2.9 4.5 1.3 1.3 2.9 2.3 4.9 3.2 1.9 1 4.2 1.6 6.8 2.3 2.9.6 5.2 1.3 7.1 1.9 1.9.6 3.2 1.3 4.5 1.6 1 .6 1.9 1.3 2.3 1.9.3.6.6 1.3.6 2.3 0 1.3-.3 2.3-1 3.2s-1.9 1.6-3.6 1.9c-1.6.6-3.9.6-6.8.6-1.9 0-3.9-.3-5.8-.6-1.6-.3-3.2-1-4.9-1.3-1.3-.6-2.6-1-3.6-1.6-1-.6-1.9-1-2.3-1.3-.6-.3-1-.6-1-.6v11s.3 0 .6.3c.6.3 1.3.6 2.3 1 1 .3 2.3 1 3.6 1.3s2.9.6 4.9 1c1.9.3 3.9.3 6.2.3 3.9 0 7.5-.3 10-1.3 2.9-.6 5.2-1.9 7.1-3.6 1.9-1.6 3.2-3.2 4.2-5.2 1-1.9 1.3-4.2 1.3-6.8 0-2.3-.3-4.5-1-6.2-.6-1.6-1.6-3.2-2.9-4.5-1.3-1.3-2.9-2.3-4.9-3.2-1.8 0-4-.6-6.6-1.3zm-91.4 31.8h19.8v-9.7h-4.5V662l21.1 45h18.1v-44.7h4.5v-9.7H859v9.7h4.5v35.3l-21.1-45h-22.7v9.7h4.5v35.3H820v9.8zm-24.6-9.8H791v9.7h20.1v-9.7h-4.5v-35.3h4.5v-9.7H791v9.7h4.5v35.3zM1004.5 354.2c-12 1.3-24.9 1.3-37.9.3-9.4-.6-20.4-2.6-31.1-5.2-9.7-2.6-18.8-5.8-25.3-9.4-16.2-9.1-24.3-30.5-32.4-51.8-7.5-20.1-14.9-39.8-28.5-46.7-6.8-3.2-22-6.8-36.6-10l-2.3-.6-7.8-1.3c-6.2-1-13.9-2.6-18.5-3.6-2.3 1.3-4.5 3.2-3.2 8.1.3 1.3 1 2.3 1.9 3.2 1 1 2.3 1.6 3.6 1.9 2.3.3 5.2.6 8.4 1.3 13.9 1.6 34.3 4.2 50.2 15.6 4.5 3.2 8.7 9.7 12.6 17.5 3.9 7.8 7.5 16.8 10.7 25.6 1.3 3.6 2.6 7.5 4.2 11 4.5 12.6 9.1 24.9 13.3 31.1 14.6 21.1 30.1 21.4 52.5 22 6.2.3 12.6.3 19.4 1 4.5.3 12.6 1.9 19.8 5.5 3.9 1.9 7.1 4.5 9.4 7.5 5.8-9.4 13.6-11.3 21.7-13.3l1.9-.3c5.2-1.3 9.7-1.9 13.9-2.9 7.8-1.3 14.9-2.6 22.7-5.8 11-4.5 16.5-14.6 20.7-22.4l1-1.9c4.2-7.5 6.2-14.6 8.7-22.7 3.2-10.7 7.1-23 16.2-40.5 2.3-4.2 9.4-9.4 17.8-14.6 13-7.8 29.2-15.6 35-17.8 5.2-1.9 8.4-4.9 9.7-8.1.6-1.6 1-3.2 1-4.5 0-1.3-.6-2.6-1.6-3.9-1-1-1.9-1.9-3.6-2.3-6.8 6.2-16.2 10.7-24 14.6-2.3 1.3-4.5 2.3-6.2 3.2-5.8 3.2-13 7.8-19.4 12.3-5.8 4.2-11.3 8.7-14.3 12-5.5 6.2-8.1 13-11.3 22.7-2.6 8.1-6.2 17.8-12.6 30.8-2.9 5.8-7.1 13-12.3 19.1-4.2 4.9-8.7 9.4-13.9 12.6-9.7 5.8-21.1 9.1-33.4 10.7h-.1zM801.3 184.8l4.9.3c16.8 1.6 46.3 4.5 68.7 15.9 8.1 3.9 15.2 9.1 22 15.2 6.5 5.8 12.3 13 17.5 20.7 4.2 6.5 6.8 14.3 9.4 22 1.6 4.9 3.2 9.4 5.2 13.6 15.2 31.4 46 28.8 69.3 26.9l2.6-.3c10.4-1 15.2-6.5 22.4-14.6 1-1 1.9-2.3 3.2-3.9 5.2-5.8 9.4-13 13.3-20.7 3.9-7.8 7.1-15.9 10-23.6.6-1.6 1.3-3.2 1.6-4.9 2.6-7.5 5.2-14.9 11-20.7 13.9-13.9 30.5-22.4 45.7-30.1 7.5-3.9 14.9-7.5 21.4-11.7 6.8-4.2 13.3-6.2 17.8-7.5 1.6-.6 2.3 0 2.6-.3l.3-.3c1.6-2.6 1.9-4.9 1.9-6.5s-1-2.9-1.6-4.2c-1.9-3.2-6.2-2.9-7.1-2.9-15.2 3.9-38.2 15.6-59 28.2-22 13.3-40.8 27.2-44.1 33.4-1.9 3.9-4.2 9.4-6.8 15.6-8.1 19.4-18.8 45-29.8 48.3-1.6.3-3.2.6-4.9.3-1.6-.3-3.2-1-4.5-1.9-6.8-5.5-7.8-13-8.7-18.8v-.6c-.3-2.3-.6-7.8-1-16.8-.3-12.3-1.3-31.1-2.6-56-.3-2.9-.3-5.8-.3-9.1 0-8.1 0-17.2-3.2-24.6-.6-1.6-1.3-2.3-1.9-2.9-.3-.3-.6-.3-.6-.3-.3 0-.6 0-1.3.3-1.9 1-4.2 3.2-6.2 6.2-1 1.6-1 8.7-1 14.6v6.5c-.6 9.1-.3 17.2 0 24.6.3 4.5.3 8.7.3 12.6 0 1.9.3 6.5 1 12.3 1.3 13.6 2.9 34.3 1.3 46-1.3 9.1-9.7 9.1-11.7 9.1-14.6 0-20.4-18.1-25.6-33.7-1.3-4.2-2.6-8.1-4.2-11.3l-.6-1.6c-2.9-7.1-7.1-17.2-15.9-23-13.9-9.7-34-17.8-54.4-24-27.2-8.4-54.7-13.3-69.3-13.9-2.3 0-4.5.3-6.8 1.3-1.6 1-3.2 1.9-4.2 3.6-1.6 2.9 0 6.2.6 7.5l.3.6c.6 1.3 4.5 2.6 9.1 3.6 5.2.5 11 1.2 13.9 1.5zm349.6 9.7l-1.6 1c-8.1 5.5-17.8 9.7-27.2 14.3-13 6.2-25.9 12-35.3 20.4l-1.3 1.3c-9.7 10.4-17.5 27.9-23.3 41.1-1.3 2.9-2.6 5.8-3.6 8.1l-1.6 3.2c-6.8 14.9-11.7 25.6-19.8 33.7-2.3 2.3-4.5 4.5-7.5 6.5-1.9 1.3-4.2 2.9-6.8 4.2l-7.8 3.9h-.3c-5.2 1.6-10.4 2.9-16.2 3.9-5.8 1-12.3 1.3-21.1.6-11.7-.6-24.3-2.6-35.3-5.8-9.7-2.9-18.8-7.1-24.6-12.6l-1-1V316c0-.6-1.6-1.3-3.6-3.2-2.6-2.9-5.2-5.8-5.8-7.5l-7.1-16.5c-1.6-3.9-3.9-8.4-6.2-13-3.9-7.8-8.1-16.2-11.7-25.6-2.9-8.4-12.6-15.9-24.3-22-16.2-8.7-36.3-14.3-48.9-15.9-1.3 0-9.1-1.3-16.8-2.9-1-.3-1.9-.3-2.6-.6-1.6-.3-2.9-.3-4.2-.6-4.2-.6-5.5 1-6.2 1.9l-.3.3c-.3.3-.3 1.6-.3 2.3v1c0 1.3.3 2.3 1 3.2 1 1.3 2.3 2.3 2.9 2.9h.3l1-.3.6-.3h1.2c1.6 0 2.3 0 4.5.6 5.2 1.6 13 3.6 21.1 5.5l1.6.3c3.6.6 6.2 1.3 8.7 1.9 12 2.6 21.4 4.5 30.8 9.1 15.9 7.8 23.6 28.8 31.7 49.9 7.5 20.1 15.2 40.5 29.5 48.6 5.8 3.2 14.6 6.5 23.6 8.7 10 2.6 21.1 4.5 29.8 4.9 12.3 1 24.6 1 36.3-.3 11.3-1.3 22-4.2 31.1-9.7 4.5-2.9 8.7-6.8 12.3-11.3 4.9-5.8 8.7-12.3 11.3-17.8 6.2-12.6 9.7-22.4 12.3-30.1 3.6-10.4 6.2-17.5 12.6-24.6 3.2-3.6 9.1-8.4 15.2-13 6.8-4.9 13.9-9.7 20.1-13 1.6-1 3.9-1.9 6.2-3.2 7.1-3.6 16.2-8.1 22-13.6l.6-.6c.6-1 1.3-1.6 2.6-1.9.6-1 1.3-1.6 1.9-2.6 2.6-3.9 3.2-6.8 2.9-8.7 0-1-.6-1.9-1-2.6-.6-.6-1.3-1-2.3-1.3.9.1.2.1-.1.1zm5.2-13.2c1.6-2.9 1.9-6.5 1-11.7-.3-.3-.3-.6-.3-1-.3-1-1.3-2.6-2.6-2.6-1.3.6-2.9 1.3-4.9 1.6-3.9 1-10 2.9-15.9 6.5-6.8 4.5-14.3 8.1-22 12-14.9 7.8-30.8 15.9-44.4 28.8-4.5 4.5-7.1 11.7-9.4 18.1-.6 1.6-1.3 3.6-1.6 4.9-2.9 7.8-6.2 16.2-10.4 24.3-3.9 8.1-8.7 15.9-14.3 22-1 1-2.3 2.6-3.2 3.9-8.1 9.1-13.6 15.9-26.6 16.8l-2.6.3c-25.3 1.9-58.6 4.9-75.8-30.5-1.9-4.2-3.9-9.1-5.5-14.3-2.6-7.1-5.2-14.6-8.7-20.7-4.5-7.1-10-13.6-16.2-19.4-6.2-5.5-13.3-10.4-20.4-14.3-21.4-10.7-49.9-13.6-66.4-15.2h-5.2c-1.3 0-2.9-.3-4.5-.3-3.6-.3-8.1-.3-12-1-.3 0-1 0-1.3.3h-.3c-.3 0-.3-.3-.3-.6l-.3.3c-1 1.3-1.6 2.3-1.9 3.2-.6 1.3-.6 2.3-.3 3.2.3 1 .6 1.6 1.6 2.3.6.3 1.3 1 1.9 1 2.3 1 5.2 1.6 8.1 2.3l3.2.3 2.6.3 13.9 1.6c13 1.6 34 7.5 51.2 16.5 13 6.8 23.6 15.6 27.2 25.6 3.2 9.1 7.5 17.2 11.3 24.9 2.3 4.5 4.5 8.7 6.5 13.3l7.1 16.5c.3.6 2.6 3.6 4.9 5.8 1.6 1.9 3.6 3.9 4.5 5.5 5.2 4.9 13.3 8.4 22 11 10.7 3.2 22.7 5.2 34 5.8 8.1.3 14.3 0 19.8-.6s10-1.9 14.9-3.6c2.6-1 4.9-2.3 7.1-3.6 2.3-1.3 4.5-2.6 6.2-3.9 1.9-1.3 3.6-2.6 5.2-4.2 6.8-7.1 11.3-17.2 17.5-30.8l1.6-3.6c1-2.3 2.3-4.9 3.6-7.8 6.2-14.3 14.6-33 25.6-44.4 1-1 1.6-1.9 2.6-2.6 10-9.1 23.3-15.2 36.6-21.7 9.4-4.2 18.5-8.7 26.2-13.9h.3c.3-.3 1-.3 1.3-.6 3.6-1.2 6.2-3.5 7.8-6zM964 553.8h-.3c-1.6.6-2.9 2.6-4.2 5.2-1.3 2.9-1.9 6.2-1.6 8.7 0 .3 0 1 .3 1.3.6 2.6 1 4.2 1.3 5.8.3 1.6.6 3.2 1.3 4.9 0 .3.3-.3 1.3 0 2.3.6 5.5 1 6.5 1 1.6 0 3.6-1 5.2-2.3 1.3-1.3 2.3-2.9 2.3-4.2 0-1.9.3-3.2.6-4.2s.3-1.3-.6-2.9V566.2c-.3-1.3-1.9-5.8-4.2-8.1-1.6-1.6-3.6-2.9-5.2-3.6-.6-.3-1-.3-1.3-.3l-1.4-.4zm3.2-25.6c-2.9.3-5.8.6-8.1 1.6-1.9.6-3.6 1.9-4.5 3.9-1.6 3.2-.3 5.8 1 8.7v.3c.3.3 1.3-.3 3.2-.3 2.6.3 5.5.3 6.5.3 1.6 0 3.6-1 5.2-2.3 1.3-1.3 2.3-2.9 2.3-4.2v-1.9c0-2.3 0-2.6-1.6-5.2 0 0-1-.3-2.3-1h-.3l-1.4.1zm-2.6-22c-2.9.3-5.8.6-8.1 1.6-1.9.6-3.6 1.9-4.5 3.9-1.6 3.2-.3 5.8 1 8.7v.3c.3.3 1.3-.3 3.2-.3 2.6.3 5.5.3 6.5.3 1.6 0 3.6-1 5.2-2.3 1.3-1.3 2.3-2.9 2.3-4.2v-1.9c0-2.3 0-2.6-1.6-5.2v-.3s-1-.3-2.3-1h-.3l-1.4.4zm-2.9-24.3c-2.9.3-5.8.6-8.1 1.6-1.9.6-3.6 1.9-4.5 3.9-1.6 3.2-.3 5.8 1 8.7v.3c.3.3 1.3-.3 3.2-.3 2.6.3 5.5.3 6.5.3 1.6 0 3.6-1 5.2-2.3 1.3-1.3 2.3-2.9 2.3-4.2V488c0-2.3 0-2.6-1.6-5.2v-.3s-1-.3-2.3-1h-.4l-1.3.4zm-2.9-23.3c-2.9.3-5.8.6-8.1 1.6-1.9.6-3.6 1.9-4.5 3.9-1.6 3.2-.3 5.8 1 8.7v.3c.3.3 1.3-.3 3.2-.3 2.6.3 5.5.3 6.2.3 1.6 0 3.6-1 5.2-2.3 1.3-1.3 2.3-2.9 2.3-4.2v-1.9c0-2.3 0-2.6-1.6-5.2v-.3s-1-.3-2.3-1h-.3l-1.1.4zm68-39.6c-.6-2.6-1-4.9-1.9-6.8-1-1.6-1.9-2.9-3.6-3.6-2.9-1-4.9.3-7.5 1.6h-.3c-.3.3.6 1 .6 2.6 0 2.3.3 4.9.3 5.5 0 1.3 1 2.9 2.3 3.9 1.3 1 2.6 1.6 3.6 1.6h1.6c1.9 0 2.3-.3 4.2-1.6h.3s0-.6.3-1.9V419zm-24.3 11.4c-2.6.3-5.5.6-7.8 1.6-1.9.6-3.6 1.9-4.5 3.9-1.6 2.9-.3 5.5 1 8.4v.3c.3.3 1.3-.3 2.9-.3 2.6.3 5.2.3 6.2.3 1.6 0 3.2-1 4.9-2.3 1.3-1.3 2.3-2.6 2.3-3.9v-1.6c0-2.3 0-2.6-1.3-4.9v-.3s-1-.3-1.9-.6h-.3l-1.5-.6zm-14.2-18.2v1.6l3.9 6.8c.6 1.3 2.3 2.6 4.2 3.2 1.6.6 3.2.6 4.5 0l1.6-1c1.9-1 2.3-1.3 3.6-3.6v-.2s-.3-1-.3-2.3v-.3l-.6-1c-1.6-2.3-3.2-4.5-4.9-5.8-1.6-1.3-3.2-1.9-5.2-1.9-3.6 0-5.2 2.3-6.8 4.5zm-11.4-2.9c-2.6.3-5.5.6-7.8 1.6-1.9.6-3.6 1.9-4.5 3.9-1.6 2.9-.3 5.5 1 8.4v.3c.3.3 1.3-.3 2.9-.3 2.6.3 5.2.3 6.2.3 1.6 0 3.2-1 4.9-2.3 1.3-1.3 2.3-2.6 2.3-3.9v-1.6c0-2.3 0-2.6-1.3-4.9v-.3s-1-.3-2.3-.6h-.3l-1.1-.6zm24.6-13.3c-.6-2.3-1-4.5 0-7.5v-.6s-.6 0-1.6-.3h-1c-2.3.3-4.5.6-6.5 1.3-1.6.6-2.6 1.6-3.6 2.9-1.3 2.3-.3 4.5 1 6.8v.3c.3.6 1-.6 2.3-.3 1.9.3 4.5.3 5.2.3 1.3 0 2.6-.6 3.9-1.6 0-.6.3-.9.3-1.3zm18.8-11.6c-2.6.3-5.5.6-7.8 1.6-1.6.6-2.9 1.6-3.9 2.9.3 1 .3 2.3.3 3.9v1.6c0 1-.3 1.9-.3 2.6l.6 1.3v.3c.3.3 1.3-.3 2.9-.3 2.6.3 5.2.3 6.2.3 1.6 0 3.2-1 4.9-2.3 1.3-1.3 2.3-2.6 2.3-3.9v-1.6c0-2.3 0-2.6-1.3-4.9 0 0-1-.3-1.9-.6h-.3l-1.7-.9zM965.6 443v1.3l.6 1.3v.3c.3.3 1.3-.3 2.9-.3 2.6.3 5.2.3 6.2.3 1.6 0 3.2-1 4.9-2.3 1.3-1.3 2.3-2.6 2.3-3.9v-1.6c0-2.3 0-2.6-1.3-4.9v-.2s-1-.3-1.9-.6h-1.6c-2.6.3-5.5.6-7.8 1.6-1.9.6-3.2 1.6-4.2 3.6.3 1.3.3 2.3.3 4.2l-.4 1.2zm-11.7-7.8c-2.6.3-5.5.6-7.8 1.6-1.9.6-3.6 1.9-4.2 3.9-1.6 2.9-.3 5.5 1 8.4v.3c.3.3 1.3-.3 2.9-.3 2.6.3 5.2.3 6.2.3 1.6 0 3.2-1 4.9-2.3.6-.6 1.3-1.6 1.9-2.3-.6-2.3-1.3-4.5-.3-7.5l-.6-1s-1-.3-1.9-.6h-.3l-1.8-.5zm-2.2-25.2c-2.9.3-5.8.6-8.1 1.6-1.9.6-3.6 1.9-4.5 3.9-1.6 3.2-.3 6.2 1 8.7v.3c.3.3 1.3-.3 3.2-.3 2.6.3 5.5.3 6.5.3 1.6 0 3.6-1 5.2-2.3 1.3-1.3 2.6-2.9 2.6-4.2v-1.9c0-2.3 0-2.9-1.6-5.2v-.3s-1-.3-2.3-1h-.3l-1.7.4zm13.2-14.9c0 1 0 1.9-.3 2.6.3 1 .6 1.6 1 2.6v.3c.3.3 1.3-.3 2.9-.3 2.6.3 5.2.3 6.2.3 1.6 0 3.2-1 4.9-2.3 1.3-1.3 2.3-2.6 2.3-3.9v-1.6c0-2.3 0-2.6-1.3-4.9 0 0-1-.3-1.9-.6h-1.6c-2.6.3-5.5.6-7.8 1.6-1.6.6-3.2 1.6-4.2 3.2v1.3l-.2 1.7zM951.3 385c-3.6.3-6.8 1-9.7 1.9-2.6 1-4.5 2.6-5.8 4.9-1.9 4.2-.3 7.5 1.3 11v.3c0 .3 1.9 0 4.2 0 3.2.3 6.5.3 7.5.3 2.3 0 4.5-1.3 6.5-2.9 1-1 1.6-1.9 2.3-2.9-.3-2.3-.3-4.5.6-7.1 0-1-.6-1.9-1.6-3.9v-.3s-1.3-.6-2.9-1.3l-.6-.3-1.8.3z"/></g></svg>