<svg id="Camada_1" xmlns="http://www.w3.org/2000/svg" viewBox="0 0 3118.1 850.4"><style>.st0{fill:#9D9D9C;}</style><path class="st0" d="M1346.2 87v343.1c4.1 108 103.9 160 184.8 209.5l27.2 16.5c51.1-30.5 104.8-59.4 149.3-99.8 35.5-33 58.6-67.6 64.3-116.3V87h-425.6zm321.7 48.7c6.6-5.8 14.8-8.2 25.6-8.2 4.1 0 8.2.8 11.5 1.6 3.3.8 7.4 2.5 10.7 4.1-.8 1.6-1.6 3.3-1.6 4.9-.8 1.6-.8 3.3-1.6 5.8h-.8c-1.6-3.3-4.1-5.8-7.4-7.4-2.5-1.6-6.6-2.5-9.9-2.5-5.8 0-10.7 2.5-14 6.6-3.3 4.9-5.8 10.7-5.8 19 0 8.2 1.6 14 4.9 18.1 3.3 4.1 8.2 6.6 14 6.6h4.1c1.6 0 2.5 0 4.1-.8V181v-9.1c0-3.3 0-6.6-.8-9.9h16.4c0 3.3-.8 5.8-.8 8.2V187.5c-4.9 1.6-9.1 2.5-14 3.3-4.1.8-8.2.8-12.4.8-9.9 0-17.3-2.5-23.1-8.2s-8.2-13.2-8.2-23.1c-.8-11.4 2.5-18.8 9.1-24.6zm-89.9 0c5.8-5.8 14-8.2 24.7-8.2 3.3 0 7.4 0 10.7.8 3.3.8 6.6 1.6 9.9 3.3-.8 1.6-1.6 3.3-1.6 5.8-.8 1.6-.8 3.3-1.6 4.9h-1.6c-1.6-3.3-3.3-5.8-5.8-7.4-2.5-1.6-5.8-2.5-9.9-2.5-5.8 0-10.7 2.5-14 6.6-3.3 4.1-4.9 9.9-4.9 17.3 0 9.1 1.6 15.7 4.9 19.8 3.3 4.1 8.2 6.6 14.8 6.6 4.1 0 7.4-.8 9.9-1.6 3.3-1.6 4.9-3.3 6.6-5.8l1.6.8c0 1.6-.8 3.3-.8 4.9 0 1.6-.8 2.5-.8 4.1-2.5 1.6-5.8 2.5-8.2 3.3-3.3.8-6.6.8-10.7.8-10.7 0-18.1-2.5-24.7-8.2-5.8-5.8-8.2-13.2-8.2-23.1.6-9 3.9-16.4 9.7-22.2zm-68.4-6.6h23v8.3c-2.5 0-4.9 0-6.6-.8h-13.2v16.5h8.2c3.3 0 6.6 0 10.7-.8v8.2c-3.3 0-6.6-.8-9.9-.8h-9.1v23.1c0 1.6 0 4.1.8 5.8h-16.4c0-3.3.8-6.6.8-9.9v-23.9-15.7c0-4.1-.8-7.4-.8-10.7 5.9-.1 10-.1 12.5.7zm-103.1-.8h11.5c0 4.1-.8 9.1-.8 13.2v15.7c0 9.9.8 16.5 3.3 19 2.5 3.3 5.8 4.9 10.7 4.9 2.5 0 4.9-.8 7.4-1.6s4.1-2.5 4.9-4.9c.8-1.6 1.6-4.1 2.5-6.6 0-2.5.8-7.4.8-13.2v-14c0-4.1 0-9.1-.8-12.4h9.8c0 4.1 0 7.4-.8 10.7v21.4c0 5.8-.8 10.7-1.6 14-.8 3.3-2.5 5.8-4.1 8.2-2.5 2.5-4.9 4.1-8.2 5.8-3.3.8-7.4 1.6-12.4 1.6s-9.9-.8-13.2-2.5c-4.1-1.6-6.6-3.3-8.2-6.6-1.6-1.6-2.5-4.9-3.3-7.4-.8-3.3-.8-8.2-.8-14.8v-10.7-10.7c0-3.3 0-5.8-.8-9.1h4.1zm343.9 310.1c-3.3 28.9-14.8 53.6-31.3 75.1-30.5 40.4-79.2 69.3-122.9 95.7-6.6 4.1-13.2 8.2-19 11.5l-15.7 9.1-3.3 1.6-.8-.8-14.8-8.2c-6.6-4.1-13.2-7.4-19.8-11.5-42.1-24.7-89.9-53.6-121.2-93.2-19.8-24.7-33-52.8-34.6-87.4V219.8h384.4l-1 218.6z"/><path class="st0" d="M1713.3 506c-29.7 39.6-77.5 68.5-121.2 94.9-6.6 4.1-13.2 7.4-19.8 11.5l-14 8.2-11.5-7.4c-6.6-4.1-13.2-8.2-19.8-11.5-47-28-98.2-58.6-127-102.3l64.3-47 3.3-2.5h.8c5.8-3.3 9.9-6.6 12.4-9.1l.8-.8c30.5-23.1 42.9-35.5 70.9-36.3h2.5c28.9 0 40.4 13.2 70.9 36.3l4.9 4.1 82.5 61.9z"/><path class="st0" d="M1741.3 228.9v208.7c-3.3 26.4-13.2 47.8-27.2 67.6l-80-72.6c-4.9-4.9-9.9-9.9-15.7-14 11.5 0 19.8-6.6 44.5-.8-19.8-13.2-43.7-8.2-53.6-19 21.4-1.6 20.6-14 53.6-19-23.1-5.8-43.7 6.6-56.9.8 19.8-9.1 14.8-20.6 43.7-36.3-23.1 2.5-38.8 21.4-52.8 19.8 15.7-14.8 6.6-23.9 28.9-48.7-21.4 9.9-29.7 33.8-42.9 37.1 9.1-19-1.6-24.7 10.7-56.1-16.5 16.5-16.5 42.1-28 49.5 2.5-21.4-10.7-23.1-9.1-56.1-9.9 21.4-.8 44.5-9.1 56.1-4.9-20.6-17.3-18.1-28-49.5-1.6 23.9 14.8 42.1 10.7 56.1-11.5-17.3-22.3-10.7-42.9-37.1 6.6 23.1 28 34.6 28.9 48.7-17.3-12.4-24.7-2.5-52.8-19.8 13.2 19 37.9 23.1 43.7 36.3-20.6-5.8-23.9 5.8-56.9-.8 19.8 13.2 43.7 8.2 53.6 19-21.4 1.6-20.6 14-53.6 19 16.5 4.1 31.3-.8 43.7-2.5-6.6 5.8-13.2 11.5-19 17.3l-75.1 66.8c-14-20.6-22.3-43.7-23.1-70.1V228.9h364.7zM1900.5 572.8l-49.5-4.9 9.9-52c-4.1 2.5-99 80.8-99 81.7l17.3 28.9c-51.1 33-131.1 54.4-219.4 54.4-89.1 0-168.3-21.4-219.4-54.4l-14.8 24.7 2.5 2.5c.8.8 1.6 1.6 1.6 3.3-.8 0-1.6.8-2.5 1.6-.8.8-1.6.8-2.5 1.6.8-1.6.8-2.5.8-4.1 0-.8-.8-1.6-1.6-2.5h-.8c-.8-.8-1.6-1.6-3.3-1.6-.8 0-1.6 0-2.5.8-.8.8-.8 1.6 0 4.1 0 .8.8 1.6.8 2.5 0 .8 0 .8.8 1.6.8 2.5 1.6 4.9 1.6 6.6 0 1.6-.8 2.5-1.6 4.1-1.6 2.5-4.1 3.3-6.6 3.3s-4.9-1.6-7.4-3.3l-2.5-2.5s-1.6-1.6-1.6-2.5c.8-.8 1.6-.8 2.5-1.6.8-.8 1.6-1.6 3.3-2.5h.8c-.8 1.6-.8 2.5-.8 4.1s.8 2.5 2.5 3.3c.8.8 2.5 1.6 3.3 1.6s1.6 0 2.5-1.6c.8-.8.8-1.6.8-2.5s-.8-2.5-1.6-4.9c-1.6-3.3-2.5-4.9-1.6-6.6 0-.8 0-2.5 1.6-3.3l-29.7-24.7-23.1 31.3c44.5 60.2 161.7 103.9 297.8 103.9s253.2-43.7 300.2-105.6l-23.1-31.3 64.3-53.5zm-557.5 113c-.8.8-2.5 1.6-3.3 1.6-1.6.8-3.3.8-4.9 0-1.6 0-3.3-.8-4.9-2.5-1.6-.8-3.3-2.5-4.1-4.1s-1.6-2.5-1.6-4.1c0-.8 0-2.5.8-3.3.8-1.6 1.6-3.3 3.3-5.8l1.6-2.5.8-.8c.8-1.6 1.6-2.5 2.5-4.1.8-.8 1.6-2.5 1.6-3.3.8.8 1.6.8 1.6 1.6.8 0 .8.8 1.6.8 0 0 .8.8 1.6.8s.8.8 1.6.8c-1.6 1.6-2.5 3.3-3.3 4.9-1.6 1.6-2.5 3.3-4.1 5.8-2.5 3.3-3.3 6.6-3.3 7.4 0 1.6.8 3.3 2.5 4.1.8.8 2.5.8 3.3.8s2.5 0 3.3-.8c.8-.8 1.6-.8 2.5-1.6.8-.8 1.6-2.5 3.3-4.9 1.6-1.6 2.5-3.3 3.3-4.9s1.6-3.3 2.5-4.9l.8.8s.8 0 .8.8h.8s.8 0 .8.8c-.8 1.6-1.6 2.5-2.5 3.3-.8.8-1.6 2.5-2.5 3.3l-3.3 4.9c-.7 2.7-2.3 4.3-3.1 5.1zm16.4 2.5c-.8-.8-.8-.8-1.6-.8l-2.5 4.9s-.8.8-.8 1.6-.8 2.5-1.6 3.3c0 0 0-.8-.8-.8s-.8-.8-1.6-.8-.8 0-1.6-.8c-.8 0-.8-.8-1.6-.8.8-1.6 1.6-3.3 2.5-4.9.8-1.6 2.5-4.1 3.3-6.6.8-2.5 2.5-4.1 3.3-6.6.8-1.6 1.6-4.1 2.5-5.8.8 0 .8.8 1.6.8s.8.8.8.8c.8 0 1.6.8 3.3 1.6 1.6.8 2.5.8 3.3 1.6 2.5 1.6 4.9 2.5 5.8 4.1s.8 3.3 0 5.8c-1.6 2.5-3.3 4.1-4.9 4.1-2.8 1-6.1 1-9.4-.7zm29.7 22.3c-.8 0-.8-.8-1.6-.8 0 0-.8 0-1.6-.8-.8 0-1.6-.8-2.5-.8 0-1.6 0-3.3-.8-5.8 0-2.5-.8-4.9-1.6-8.2l-1.6 4.9c-.8 1.6-.8 2.5-1.6 3.3 0 .8-.8 2.5-.8 3.3-.8 0-1.6-.8-1.6-.8-.8 0-.8-.8-1.6-.8 0 0-.8 0-1.6-.8s-.8 0-1.6-.8c.8-1.6 1.6-3.3 2.5-4.9s1.6-3.3 2.5-5.8l.8-1.6c.8-2.5 2.5-4.9 2.5-6.6.8-1.6 1.6-4.1 1.6-5.8.8.8 1.6.8 2.5.8.8 0 1.6.8 3.3.8 1.6.8 3.3.8 4.1 1.6 2.5.8 4.9 2.5 5.8 4.1s.8 3.3 0 5.8c-.8 1.6-1.6 2.5-3.3 3.3-1.6.8-3.3.8-4.9 0 0 2.5.8 4.9 1.6 7.4s.8 4.9 1.6 7.4c-.4 2.4-2.1 1.6-2.1 1.6zm25.6 8.2h-1.6c-.8 0-.8 0-1.6-.8-.8 0-1.6 0-2.5-.8v-7.4s-.8 0-1.6-.8c-.8 0-1.6-.8-2.5-.8h-1.6c-.8 0-1.6 0-2.5-.8-.8 1.6-2.5 3.3-4.1 5.8 0 0-.8 0-.8-.8H1393.5c3.3-4.1 6.6-7.4 9.9-11.5 3.3-4.1 5.8-7.4 9.1-11.5.8 0 1.6.8 1.6.8H1416.5c0 4.9 0 9.9.8 14.8 0 4.9.8 9.1.8 14-1.7-.2-2.6-.2-3.4-.2zm56.1-1.6c-.8 4.1-2.5 7.4-5.8 9.9-3.3 1.6-7.4 2.5-11.5 1.6-4.9-.8-8.2-2.5-9.9-4.9-1.6-2.5-2.5-5.8-1.6-9.9s2.5-7.4 5.8-9.1 7.4-2.5 11.5-1.6c4.9.8 8.2 2.5 9.9 4.9 1.6 1.7 2.4 5 1.6 9.1zm34.6 17.3c-.8 0-1.6 0-2.5-.8h-1.6-4.1c0-1.6 0-4.9.8-7.4v-9.9c-1.6 2.5-3.3 5.8-4.9 8.2-1.6 2.5-3.3 5.8-4.9 8.2h-1.6-1.6c-.8-3.3-1.6-5.8-2.5-9.1-.8-2.5-1.6-5.8-3.3-9.1l-2.5 9.9c0 .8 0 1.6-.8 3.3 0 .8 0 2.5-.8 3.3h-4c.8-2.5 1.6-4.9 2.5-7.4.8-1.6.8-4.1 1.6-5.8l3.3-12.4H1483.3c.8 3.3 1.6 6.6 2.5 9.9.8 3.3 1.6 5.8 2.5 8.2l6.6-9.9c.8-1.6 1.6-2.5 1.6-3.3.8-.8.8-2.5 1.6-3.3H1502.9V721.9c2.5 6 2.5 10.1 2.5 12.6zm32.2-19c0 2.5-.8 5.8-.8 10.7v9.8h-3.2-1.6c-2.5-3.3-4.1-5.8-6.6-9.1s-4.9-5.8-7.4-9.1l-.8 10.7v6.6h-1.6-.8-1.6c0-1.6.8-4.1.8-5.8s0-4.1.8-7.4v-5.8-7.4H1519.6c2.5 3.3 4.9 5.8 6.6 9.1 2.5 3.3 4.9 5.8 7.4 8.2v-7.4-4.9-4.9h3.2c1.6 2.6.8 4.3.8 6.7zm23.9-4.9v3.2h-9.1v7.4h8.2V723.6h-8.2v9.9h8.2v3.2h-16.5c0-1.6 0-2.5.8-4.1V723v-6.6c0-1.6 0-3.3-.8-4.9H1555.7c1.7-1.7 3.4-1.7 5.8-.9zm21.5 23.1c-1.6 1.6-4.9 2.5-8.2 2.5h-4.1c-.8 0-2.5-.8-3.3-.8 0-.8 0-1.6.8-2.5 0-.8 0-2.5.8-3.3h.8c0 1.6.8 2.5 2.5 3.3.8.8 2.5.8 4.1.8 1.6 0 2.5-.8 3.3-.8.8-.8 1.6-1.6 1.6-2.5s0-1.6-.8-2.5c-.8-.8-2.5-1.6-4.1-2.5-3.3-.8-4.9-2.5-5.8-3.3-.8-.8-1.6-2.5-1.6-4.1 0-2.5.8-4.9 2.5-5.8 1.6-1.6 4.1-2.5 7.4-2.5h4.1c.8 0 2.5.8 3.3.8 0 .8-.8 1.6-.8 2.5 0 .8-.8 1.6-.8 2.5h-.8c-.8-1.6-1.6-2.5-2.5-3.3-.8-.8-1.6-.8-3.3-.8-1.6 0-2.5 0-3.3.8-.8.8-.8 1.6-.8 2.5 0 1.6 1.6 2.5 4.9 4.1.8 0 .8.8 1.6.8 3.3 1.6 4.9 2.5 5.8 3.3.8.8 1.6 2.5 1.6 4.1-2.5 3.4-3.3 5-4.9 6.7zm37.9-.8h-6.6s-1.6 0-3.3.8v-4.1c0-1.6 0-3.3-.8-5.8v-4.1c0-2.5-.8-4.9-.8-6.6 0-1.6-.8-3.3-.8-4.9h7.3v9l.8 9.1v4.9c1.6 0 3.3-.8 4.1-.8 1.6 0 2.5-.8 4.1-.8V732c-.7.9-3.2.9-4 .9zm32.2-7.5c-.8 1.6-1.6 2.5-3.3 3.3-1.6.8-3.3 1.6-4.9 1.6h-5.8c-1.6-.8-3.3-.8-4.1-2.5-.8-.8-1.6-1.6-1.6-3.3-.8-1.6-.8-3.3-1.6-6.6l-.8-3.3V713c0-1.6-.8-3.3-.8-4.1 0-1.6-.8-2.5-.8-4.1H1635.1s1.6 0 2.5-.8c0 1.6 0 4.1.8 5.8 0 1.6.8 4.1.8 6.6.8 4.1 1.6 6.6 2.5 8.2.8.8 2.5 1.6 4.9 1.6 1.6 0 2.5-.8 3.3-1.6.8-.8 1.6-1.6 1.6-2.5s.8-1.6.8-3.3c0-1.6 0-3.3-.8-5.8 0-2.5-.8-4.1-.8-5.8s-.8-4.1-1.6-5.8H1653.9v4.9s0 2.5.8 3.3l.8 5.8c0 2.5.8 4.1 0 5.8-1.6 1.8-2.4 3.4-2.4 4.2zm28-3.3h-1.6s-1.6 0-3.3.8c0-.8-.8-1.6-.8-1.6 0-.8-.8-.8-.8-.8l-4.1-4.9c-.8 1.6-1.6 3.3-1.6 4.9-.8 1.6-.8 3.3-1.6 4.9h-3.2s-.8 0-.8.8l.8-1.6c1.6-3.3 2.5-4.9 2.5-5.8l2.5-5.8-10.7-11.5c.8 0 1.6 0 2.5-.8h3.2c.8 0 1.6 0 2.5-.8.8.8.8 1.6 1.6 1.6s.8.8.8.8l3.3 4.1c.8-1.6.8-3.3 1.6-4.1 0-1.6.8-3.3 1.6-4.9h3.2s.8 0 1.6-.8c-.8 1.6-1.6 3.3-2.5 4.9-.8 2.5-1.6 4.9-3.3 7.4l11.5 12.4c-3.2 0-4.1 0-4.9.8zm34.7-9c-1.6.8-2.5.8-3.3.8-.8 0-1.6.8-2.5.8s-1.6.8-2.5.8c0-1.6-.8-2.5-.8-4.1s-.8-3.3-1.6-5.8l-.8-2.5-.8-1.6c-.8-2.5-1.6-4.9-2.5-6.6-.8-1.6-.8-3.3-1.6-4.1.8 0 .8 0 1.6-.8.8 0 1.6-.8 1.6-.8.8 0 1.6-.8 3.3-.8h.8c0 .8.8 2.5.8 3.3 0 .8.8 2.5.8 4.1v.8l2.5 8.2c.8 1.6.8 2.5.8 3.3 0 .8 0 .8.8 1.6 1.6-.8 2.5-.8 4.1-1.6 1.6-.8 2.5-.8 4.1-1.6v3.2c-1.5 2.5-4 3.4-4.8 3.4zm28.8-14.1c-.8 1.6-1.6 2.5-2.5 3.3-.8.8-2.5 2.5-4.9 2.5-2.5.8-4.1 1.6-5.8 1.6-1.6 0-3.3 0-4.1-.8l-2.5-2.5s-1.6-3.3-3.3-5.8l-.8-3.3-.8-.8c-.8-1.6-1.6-3.3-1.6-4.1-.8-1.6-.8-2.5-1.6-3.3.8 0 1.6-.8 2.5-.8s.8 0 1.6-.8.8 0 1.6-.8c.8 0 .8-.8 2.5-.8.8 1.6.8 3.3 1.6 5.8.8 1.6 1.6 4.1 2.5 6.6 1.6 4.1 3.3 6.6 4.1 7.4 1.6.8 3.3.8 4.9 0 .8-.8 2.5-.8 2.5-1.6.8-.8.8-1.6 1.6-2.5V695c0-.8-.8-3.3-1.6-4.9-.8-2.5-1.6-4.1-2.5-5.8s-1.6-3.3-2.5-4.9c.8 0 .8 0 1.6-.8h1.6s.8 0 .8-.8c.8 1.6.8 3.3 1.6 4.1 0 1.6.8 2.5 1.6 3.3l2.5 4.9c.8 2.5 1.6 4.1 1.6 5.8-1.3.7-1.3 1.5-2.2 3.1zm27.3-8.2c-.8.8-2.5 1.6-4.1 2.5-4.1 2.5-8.2 2.5-11.5 1.6-3.3-.8-6.6-3.3-8.2-7.4-2.5-3.3-2.5-7.4-.8-10.7 1.6-3.3 4.1-6.6 8.2-8.2 1.6-.8 2.5-1.6 4.1-1.6 1.6 0 3.3-.8 4.9-.8 0 .8 0 1.6.8 2.5 0 .8 0 1.6.8 2.5h-.8c-.8-.8-2.5-1.6-4.1-1.6-1.6 0-2.5 0-4.1.8-2.5 1.6-4.1 3.3-4.1 5.8-.8 2.5 0 4.9 1.6 7.4 1.6 3.3 4.1 5.8 6.6 6.6s4.9.8 7.4-.8c1.6-.8 2.5-1.6 3.3-2.5s1.6-2.5 1.6-3.3h.8c0 .8 0 1.6.8 1.6 0 .8 0 1.6.8 1.6-2.4 2.3-3.2 3.2-4 4zm21.4-13.2c-.8.8-2.5 1.6-2.5 1.6-.8.8-1.6.8-2.5 1.6-.8.8-1.6.8-2.5 1.6-.8-1.6-1.6-2.5-2.5-4.1-.8-1.6-1.6-3.3-3.3-4.9l-1.6-2.5-.8-1.6c-1.6-2.5-3.3-4.1-4.1-5.8-.8-1.6-2.5-2.5-3.3-3.3 2.5-1.6 3.3-2.5 4.1-3.3.8-.8 1.6-.8 1.6-.8.8-.8 1.6-1.6 2.5-1.6.8-.8 2.5-1.6 4.1-3.3v.8c0 .8.8.8.8.8s0 .8.8.8c-.8.8-1.6.8-2.5 1.6-.8.8-1.6.8-2.5 1.6-.8.8-.8.8-1.6.8l-.8.8c.8.8.8 1.6 1.6 2.5.8.8.8 1.6 1.6 2.5l.8 1.6c.8-.8 1.6-1.6 3.3-2.5.8-.8 2.5-1.6 4.1-3.3 0 0 0 .8.8.8v.8l.8.8s0 .8.8.8c-1.6.8-2.5 1.6-4.1 2.5-.8.8-2.5 1.6-3.3 2.5l2.5 3.3c.8.8 1.6 1.6 1.6 2.5l1.6 1.6c.8-.8 2.5-1.6 3.3-2.5.8-.8 2.5-1.6 3.3-2.5v.8s0 .8.8.8l.8.8s0 .8.8.8c-1.2 2.9-2.9 3.8-4.5 4.6zm18.1-28.9c1.6 0 2.5.8 4.1 1.6 1.6 1.6 2.5 4.1 2.5 6.6s-1.6 4.9-4.1 7.4c-.8.8-1.6 1.6-3.3 2.5-.8.8-1.6 1.6-3.3 1.6-.8-.8-.8-1.6-1.6-2.5-.8-.8-1.6-1.6-2.5-3.3l.8-.8c1.6.8 2.5 1.6 4.1.8 1.6 0 2.5-.8 3.3-1.6.8-.8 1.6-2.5 1.6-3.3s0-2.5-.8-2.5c-.8-.8-1.6-.8-2.5-.8s-2.5.8-4.9 1.6c-3.3 1.6-5.8 1.6-6.6 1.6h-1.6c-.8 0-1.6-.8-2.5-1.6-1.6-1.6-2.5-4.1-2.5-5.8v-.8c0-1.6 1.6-4.1 3.3-5.8.8-.8 1.6-1.6 3.3-2.5.8-.8 2.5-.8 3.3-1.6 0 .8.8 1.6.8 2.5.8.8.8 1.6 1.6 2.5-1.6-.8-2.5-.8-4.1-.8-.8 0-2.5.8-3.3 1.6-.8.8-1.6 1.6-1.6 2.5s0 1.6.8 2.5c.8.8 3.3.8 6.6-.8.8 0 .8-.8 1.6-.8 1.6-.8 3.3-.8 4.1-1.6 1.8 1.6 2.6 1.6 3.4 1.6z"/><path class="st0" d="M1356.1 596.8l-17.3 28.9-14.8 24.7c-2.5-1.6-4.1-2.5-6.6-2.5s-4.1.8-5.8 2.5v.8l-29.7-24.7-64.3-53.6 49.5-4.9-9.9-52c4.1 1.6 98.9 80.8 98.9 80.8zM1367.7 682.5c-.8 1.6-1.6 2.5-3.3 3.3-.8.8-2.5 0-4.1-.8l2.5-4.9.8-1.6v-.8s0-.8.8-.8h1.6c1.6.8 2.5 1.6 2.5 2.5 0 .7-.8 2.3-.8 3.1zM1390 690.8c-.8 1.6-1.6 2.5-2.5 3.3-.8 0-2.5 0-4.9-.8l2.5-4.9c0-.8.8-1.6.8-2.5 0-.8.8-.8.8-1.6h.8c1.6.8 2.5 1.6 3.3 2.5 0 1.5 0 2.3-.8 4zM1409.8 706.5c-1.6 0-2.5-.8-3.3-.8-.8 0-1.6-.8-2.5-.8.8-.8 1.6-2.5 2.5-3.3.8-.8 1.6-2.5 3.3-3.3 0 1.6 0 3.3.8 4.1-.8 1.6-.8 2.4-.8 4.1zM1463.4 716.4c-.8 3.3-1.6 5.8-4.1 7.4-1.6 1.6-4.1 2.5-6.6 1.6s-4.1-1.6-4.9-4.1c-.8-2.5-.8-4.9-.8-8.2.8-3.3 1.6-5.8 3.3-7.4 1.6-1.6 4.1-2.5 6.6-1.6 2.5 0 4.1 1.6 4.9 4.1 2.4 1.6 2.4 4.9 1.6 8.2z"/></svg>